<?xml version="1.0" standalone="no"?>
<!DOCTYPE svg PUBLIC "-//W3C//DTD SVG 20010904//EN"
 "http://www.w3.org/TR/2001/REC-SVG-20010904/DTD/svg10.dtd">
<svg version="1.0" xmlns="http://www.w3.org/2000/svg"
 width="2495.000000pt" height="2495.000000pt" viewBox="0 0 2495.000000 2495.000000"
 preserveAspectRatio="xMidYMid meet">

<g transform="translate(0.000000,2495.000000) scale(0.100000,-0.100000)"
fill="#000000" stroke="none">
<path d="M11680 24930 c-268 -10 -436 -29 -556 -65 -27 -8 -103 -23 -169 -35
-189 -32 -264 -48 -510 -105 -272 -64 -582 -131 -1175 -255 -843 -176 -1138
-269 -1615 -505 -329 -163 -600 -338 -911 -586 -347 -278 -835 -750 -1149
-1113 -732 -846 -1232 -1803 -1529 -2926 -143 -544 -217 -1474 -217 -2750 -1
-746 7 -1017 51 -1762 15 -258 -15 -626 -75 -923 -14 -66 -52 -212 -86 -325
-280 -942 -631 -2746 -1008 -5185 -202 -1300 -347 -2197 -407 -2515 -42 -225
-74 -342 -101 -379 -40 -52 -114 -81 -235 -90 -58 -5 -129 -18 -162 -30 -266
-94 -621 -465 -780 -814 -63 -138 -86 -229 -98 -387 -13 -184 -4 -670 16 -855
86 -781 343 -1314 905 -1876 288 -287 557 -482 917 -662 516 -258 1205 -450
1879 -522 179 -20 543 -22 700 -6 510 55 1004 220 1707 572 164 82 1257 656
1495 784 l62 34 223 -186 c253 -210 389 -311 568 -423 824 -511 1916 -842
3120 -945 616 -52 1514 -45 2330 20 1558 124 3129 423 4330 825 804 268 1452
559 2078 932 668 398 1203 840 1707 1408 565 638 804 1081 925 1715 11 61 30
134 41 164 11 30 26 96 34 147 49 325 43 1275 -10 1569 -67 371 -128 553 -240
710 -86 121 -180 187 -330 234 -50 16 -109 38 -131 49 -45 23 -100 80 -115
120 -9 24 -118 733 -139 907 -187 1550 -614 3479 -1186 5352 -430 1410 -1002
2835 -1710 4263 -860 1734 -1777 3187 -2594 4111 -339 382 -718 708 -1180
1014 -969 642 -2100 1054 -3390 1234 -427 60 -799 78 -1280 61z m-1030 -735
c694 -60 1022 -161 1840 -570 446 -222 754 -401 1190 -690 910 -604 1578
-1268 2202 -2190 476 -703 842 -1559 997 -2330 164 -819 170 -1558 20 -2434
-218 -1277 -444 -1866 -1082 -2826 -645 -971 -1502 -1758 -2782 -2555 -126
-79 -283 -179 -348 -222 l-118 -79 -62 20 c-77 25 -166 41 -228 41 -94 0 -210
-33 -543 -155 l-99 -36 6 158 c31 757 31 757 12 817 -30 94 -72 125 -261 186
-316 102 -630 167 -1117 230 -200 25 -599 60 -698 60 -42 0 -79 3 -82 7 -9 8
-1 14 245 159 432 256 752 426 1153 614 1949 914 3257 1984 3938 3220 117 214
264 520 302 629 20 58 46 159 60 225 47 236 50 310 50 1131 0 673 -3 787 -18
904 -34 266 -86 446 -205 711 -91 205 -231 492 -323 662 -611 1136 -1481 2014
-2509 2532 -533 270 -1016 417 -1615 493 -177 22 -772 25 -960 5 -902 -100
-1879 -489 -2630 -1047 -282 -209 -606 -514 -823 -775 -727 -873 -1097 -1935
-1069 -3070 4 -135 13 -310 22 -389 66 -606 237 -1185 515 -1749 270 -546 530
-925 983 -1427 108 -120 130 -149 147 -201 32 -95 83 -171 181 -270 103 -104
172 -149 266 -175 37 -10 76 -27 87 -37 545 -488 871 -743 1526 -1198 310
-215 550 -414 550 -457 0 -27 -155 -182 -342 -343 l-166 -144 -169 0 c-362 0
-851 -51 -1313 -135 -108 -20 -438 -90 -516 -110 -50 -13 -123 -39 -163 -59
-40 -21 -80 -34 -90 -31 -24 7 -713 703 -837 845 -793 906 -1252 1787 -1488
2855 -167 757 -216 1689 -140 2665 114 1473 501 2698 1171 3714 367 555 862
1119 1340 1529 266 227 600 464 883 627 469 269 1007 472 1539 580 277 56 521
86 851 104 124 7 546 -4 720 -19z m180 -2115 c520 -24 1001 -79 1510 -175
l178 -33 93 -63 c493 -330 987 -802 1369 -1311 234 -309 409 -595 580 -943
269 -549 419 -1046 475 -1583 l14 -136 -24 -41 c-78 -134 -338 -348 -760 -626
-115 -76 -219 -145 -229 -152 -18 -13 -17 -22 37 -292 56 -277 222 -1203 233
-1300 l6 -50 -86 -118 c-175 -241 -321 -412 -546 -641 -601 -614 -1348 -1142
-2285 -1616 -368 -186 -1189 -553 -1402 -626 l-81 -28 -79 22 c-207 61 -587
284 -1050 618 -94 68 -174 124 -178 124 -9 0 -167 120 -185 140 -8 10 -117 99
-242 199 l-228 182 0 66 c0 65 0 66 -47 109 -26 24 -44 44 -41 44 4 0 51 -33
105 -73 227 -170 371 -257 647 -395 227 -112 371 -170 541 -217 498 -136 895
-63 1463 269 229 134 477 319 707 528 l110 100 150 38 c409 104 794 297 1135
570 223 179 485 466 642 704 80 121 78 154 -4 61 -96 -109 -270 -277 -401
-386 -461 -387 -966 -635 -1500 -736 l-142 -26 -70 -66 c-260 -245 -678 -540
-983 -694 -491 -249 -803 -266 -1392 -75 -227 73 -664 271 -930 420 -185 104
-191 107 -225 120 -16 6 -91 12 -165 13 -209 4 -317 43 -431 155 -263 260
-251 830 36 1685 46 138 89 265 97 283 12 31 11 33 -25 63 -65 53 -107 165
-107 282 0 128 55 352 132 541 40 98 40 99 24 135 -10 20 -124 241 -254 491
-129 250 -279 538 -332 640 l-96 185 -154 77 c-85 43 -159 78 -165 78 -5 0
-102 -183 -215 -408 l-205 -407 -210 -71 c-115 -39 -222 -74 -236 -77 l-27 -7
-13 118 c-8 69 -14 208 -13 342 1 197 4 244 28 375 56 312 135 635 222 905
l45 141 46 -33 c53 -38 244 -191 320 -255 l51 -44 44 58 c25 32 98 134 163
228 358 513 613 985 685 1271 26 102 44 246 36 278 l-6 26 -213 0 -212 0 100
101 c202 204 572 502 637 514 58 10 398 35 553 41 141 6 158 9 285 49 811 257
1690 360 2690 315z m12639 -14653 c129 -216 159 -295 201 -527 19 -107 20
-128 9 -320 -8 -132 -10 -387 -6 -715 6 -570 5 -582 -68 -860 -157 -601 -461
-1093 -1040 -1684 -1379 -1408 -3172 -2214 -5970 -2686 -716 -121 -1183 -178
-1780 -219 -500 -35 -695 -41 -1300 -41 -774 0 -925 10 -1430 95 -990 167
-1740 411 -2308 749 -279 166 -403 267 -752 613 l-290 287 -615 -345 c-712
-400 -991 -549 -1336 -713 -505 -240 -899 -391 -1104 -425 -238 -39 -671 -51
-940 -27 -1094 99 -2121 519 -2705 1105 -402 404 -688 1010 -769 1629 -49 369
-20 719 84 1021 72 209 162 359 299 499 126 130 312 247 392 247 69 0 74 -103
28 -560 -36 -364 -47 -665 -30 -833 38 -360 163 -621 457 -951 188 -211 419
-385 727 -546 431 -225 882 -354 1362 -390 169 -12 575 -13 665 -1 36 5 121
16 190 26 234 31 356 62 571 146 142 56 591 276 864 424 611 330 742 467 684
713 -17 73 -98 231 -208 409 -109 175 -257 463 -326 632 -130 320 -216 679
-236 984 -15 226 -6 930 16 1177 22 262 68 636 78 647 2 1 14 -30 26 -70 38
-120 155 -422 226 -587 104 -240 296 -615 389 -760 13 -19 62 -97 110 -173
269 -421 397 -539 646 -593 363 -78 755 -84 1145 -19 125 21 381 84 434 107
67 28 115 72 165 148 25 38 46 72 46 75 0 3 11 22 24 42 29 42 24 50 51 -99
35 -199 108 -400 249 -693 297 -614 633 -1054 1083 -1415 558 -450 1325 -753
2200 -869 1190 -159 2989 -17 4743 375 1415 316 2476 806 3330 1539 156 134
424 404 529 534 547 675 915 1509 1031 2331 16 120 60 626 60 702 0 30 5 23
99 -135z"/>
<path d="M7440 20045 c-277 -59 -499 -255 -587 -520 -24 -72 -27 -95 -27 -230
-1 -130 2 -160 22 -225 67 -214 207 -377 408 -476 111 -54 197 -74 332 -74
128 0 223 20 328 70 291 140 460 427 441 750 -20 327 -252 610 -572 695 -83
23 -263 28 -345 10z m643 -889 c75 -31 110 -119 71 -175 -38 -53 -163 -78
-237 -47 -73 30 -105 103 -72 165 31 60 158 91 238 57z"/>
<path d="M12590 19849 c-311 -36 -564 -256 -652 -566 -31 -112 -31 -287 0
-397 92 -322 352 -537 692 -571 126 -13 307 28 429 96 179 100 322 283 372
475 31 120 29 291 -5 407 -47 159 -124 279 -248 384 -154 132 -376 196 -588
172z m595 -928 c116 -54 121 -160 10 -219 -18 -9 -55 -15 -90 -15 -94 0 -162
47 -172 120 -4 30 0 44 18 67 48 61 156 83 234 47z"/>
<path d="M13640 17873 c-138 -153 -384 -404 -505 -516 -189 -175 -360 -301
-520 -383 -71 -37 -132 -68 -133 -70 -2 -1 6 -60 19 -131 31 -172 34 -453 5
-553 -27 -96 -119 -283 -256 -520 -66 -115 -120 -214 -120 -220 0 -21 20 -8
108 70 228 201 465 516 498 660 4 19 9 40 10 45 23 87 34 270 25 390 -5 60 -9
111 -8 112 1 0 43 28 92 60 140 92 239 177 347 297 181 201 275 337 414 601
107 202 115 259 24 158z"/>
<path d="M7837 15580 c-156 -40 -256 -168 -227 -291 13 -53 69 -124 123 -157
135 -83 336 -68 445 32 138 127 95 306 -95 393 -61 28 -181 39 -246 23z"/>
<path d="M9230 15536 c-141 -41 -220 -128 -220 -244 0 -93 53 -163 170 -223
67 -34 223 -39 301 -10 70 26 146 91 170 146 73 160 -77 329 -301 341 -44 2
-94 -2 -120 -10z"/>
<path d="M8725 14454 c-8 -20 -24 -65 -35 -100 -24 -79 -32 -95 -86 -166 -56
-73 -128 -125 -213 -153 -99 -34 -162 -39 -261 -20 -47 9 -101 18 -120 21
l-35 5 30 -25 c83 -72 234 -126 350 -126 143 0 267 54 387 168 l77 74 98 -74
c159 -119 319 -191 525 -235 114 -24 359 -24 483 1 222 44 449 142 634 274
104 74 310 266 299 278 -4 4 -81 -29 -170 -74 -467 -231 -797 -297 -1183 -236
-160 25 -441 159 -534 254 -63 65 -195 170 -213 170 -11 0 -24 -14 -33 -36z"/>
</g>
</svg>
