<svg xmlns="http://www.w3.org/2000/svg" xmlns:xlink="http://www.w3.org/1999/xlink" viewBox="0 0 69.15 69.14"><defs><style>.cls-1{isolation:isolate;}.cls-2{fill:#ce5c6c;}.cls-3{mix-blend-mode:multiply;fill:url(#linear-gradient);}</style><linearGradient id="linear-gradient" x1="41.11" y1="36.86" x2="36.33" y2="64.86" gradientUnits="userSpaceOnUse"><stop offset="0" stop-color="#1c1b22"/><stop offset="0.99" stop-color="#1c1b22" stop-opacity="0"/></linearGradient></defs><g class="cls-1"><g id="Layer_2" data-name="Layer 2"><g id="Layer_1-2" data-name="Layer 1"><path class="cls-2" d="M33.4,0A34.57,34.57,0,0,0,3,48.66c.61-6.82,2.79-13.74,6.28-17,9.6.15,11.58-4.14,11.58-4.14C13.5,31,8.17,28.77,8.17,28.77v0c.08-.63,1.54-10.34,14.24-11.38a51,51,0,0,1,5.72.13,12,12,0,0,0-3-1.27,12.18,12.18,0,0,1,4-2.12,12.89,12.89,0,0,1,3.76-.52h2A17.28,17.28,0,0,1,45.21,17c4,3,10.51,6.85,17.11,7a1.28,1.28,0,0,1,1.24,1.26C62.59,35,49.4,35.44,42.79,35a16,16,0,0,0-12.66,4.87c-3.77,4-8.13,14.45,1.7,22.14a17.92,17.92,0,0,0,12.31,3.81,23.07,23.07,0,0,0,15.25-7.23,34.41,34.41,0,0,0,9.76-24.05A34.77,34.77,0,0,0,33.4,0Z"/><path class="cls-3" d="M26.49,46.41a14.17,14.17,0,0,0-.28,7.48,4.58,4.58,0,0,0,.14.53c0,.19.11.37.17.55s.2.54.31.82.32.72.51,1.08c.1.19.21.39.33.58s.41.66.64,1,.45.61.7.91.4.46.61.69a18.18,18.18,0,0,0,2.21,2,19.66,19.66,0,0,0,2,1.38l.68.38a16,16,0,0,0,1.74.81c.35.14.7.27,1,.38a13.1,13.1,0,0,0,1.42.39l.71.16a20.47,20.47,0,0,0,4.68.3,21.32,21.32,0,0,0,3.75-.54c.34-.08.69-.17,1-.27l.52-.16c.34-.1.67-.22,1-.35h0c.5-.18,1-.39,1.48-.61.65-.3,1.29-.62,1.92-1,.31-.18.61-.36.92-.56.6-.38,1.2-.79,1.78-1.23l.84-.68h0c.42-.34.82-.7,1.21-1.08h0L59,59a34.58,34.58,0,0,1-42,5.32s-4-20.87,9.88-29.93S56.67,36.6,63.21,27C60.85,35,49,35.41,42.79,35a16,16,0,0,0-12.66,4.87,15.06,15.06,0,0,0-2.29,3.25A16.07,16.07,0,0,0,26.49,46.41Z"/></g></g></g></svg>