<svg xmlns="http://www.w3.org/2000/svg" viewBox="0 0 241.67 40.58"><defs><style>.cls-1{fill:#fff;}</style></defs><g id="Layer_2" data-name="Layer 2"><g id="Layer_1-2" data-name="Layer 1"><path class="cls-1" d="M15.14,16.1H31.42A17,17,0,0,1,27,28,14.62,14.62,0,0,1,15.8,32.73,15.45,15.45,0,0,1,0,16.84,15.66,15.66,0,0,1,4.45,5.41,15.09,15.09,0,0,1,15.67.87a16.08,16.08,0,0,1,10,3.25A13.7,13.7,0,0,1,31,12.52h-6.8A8.28,8.28,0,0,0,22.3,9.67a8.59,8.59,0,0,0-2.9-1.86,10,10,0,0,0-3.6-.65,8.62,8.62,0,0,0-6.59,2.7,9.81,9.81,0,0,0-2.53,7,10.57,10.57,0,0,0,1.13,5A8.35,8.35,0,0,0,11,25.22a9.16,9.16,0,0,0,4.78,1.22,10.42,10.42,0,0,0,3.71-.65,8.68,8.68,0,0,0,3-1.85,7.41,7.41,0,0,0,1.81-2.73H15.14Z"/><path class="cls-1" d="M48,8.38h2.09v6H47.3a5,5,0,0,0-3.86,1.27,6,6,0,0,0-1.15,4.14V32.07H35.92V8.51H40l1.13,2.88A8.2,8.2,0,0,1,48,8.38Z"/><path class="cls-1" d="M76,20.2a15.11,15.11,0,0,1-.13,1.88H58.08A5.93,5.93,0,0,0,60,25.77a5.72,5.72,0,0,0,3.86,1.29,6,6,0,0,0,2.93-.72,5.3,5.3,0,0,0,2-2h6.72a12.08,12.08,0,0,1-11.7,8.38,11.65,11.65,0,0,1-8.72-3.58,12.18,12.18,0,0,1-3.5-8.86,13.7,13.7,0,0,1,.59-4,11.57,11.57,0,0,1,1.7-3.45,12.52,12.52,0,0,1,2.6-2.64,11.35,11.35,0,0,1,3.36-1.72,12.69,12.69,0,0,1,4-.61,12.3,12.3,0,0,1,6.35,1.65A11.26,11.26,0,0,1,74.51,14,13,13,0,0,1,76,20.2ZM63.84,13.27a5.6,5.6,0,0,0-3.6,1.17,5.93,5.93,0,0,0-2,3.28H69.65a6.87,6.87,0,0,0-1.27-2.42,5.46,5.46,0,0,0-2-1.51A6.09,6.09,0,0,0,63.84,13.27Z"/><path class="cls-1" d="M95.92,8.51h6.8L92.42,31.77Q90.25,36.66,88,38.62a9.06,9.06,0,0,1-6.15,2H79.2V34.82h2.23A4.91,4.91,0,0,0,84.66,34a10,10,0,0,0,2.09-3.53l.09-.17-10-21.78h6.93L90.07,23Z"/><path class="cls-1" d="M119.39,7.94a8,8,0,0,1,6.33,2.66A10.57,10.57,0,0,1,128,17.76V32.07h-6.37V18.81a6.61,6.61,0,0,0-1-4,3.63,3.63,0,0,0-3.12-1.31,4.82,4.82,0,0,0-3.84,1.66,6.6,6.6,0,0,0-1.44,4.49V32.07h-6.37V0h6.37V10.69A9.91,9.91,0,0,1,119.39,7.94Z"/><path class="cls-1" d="M145.1,32.73a13.28,13.28,0,0,1-6.55-1.62A11.53,11.53,0,0,1,134,26.64a12.54,12.54,0,0,1-1.64-6.35,11.9,11.9,0,0,1,3.63-8.9,13.48,13.48,0,0,1,18.19,0,11.89,11.89,0,0,1,3.62,8.9,11.89,11.89,0,0,1-3.64,8.88A12.46,12.46,0,0,1,145.1,32.73Zm0-6a5.94,5.94,0,0,0,4.49-1.81,6.45,6.45,0,0,0,1.75-4.65,6.45,6.45,0,0,0-1.75-4.65,6.54,6.54,0,0,0-9,0,6.41,6.41,0,0,0-1.75,4.65,7.52,7.52,0,0,0,.46,2.62A5.56,5.56,0,0,0,140.56,25a6.06,6.06,0,0,0,2,1.31A6.63,6.63,0,0,0,145.1,26.75Z"/><path class="cls-1" d="M181.16,29.83a12.53,12.53,0,0,1-16.06,0,10.2,10.2,0,0,1-3-7.69V8.51h6.37V21.38a5.78,5.78,0,0,0,1.25,3.95,4.89,4.89,0,0,0,6.89,0,5.77,5.77,0,0,0,1.24-3.95V8.51h6.38V22.12A10.19,10.19,0,0,1,181.16,29.83Z"/><path class="cls-1" d="M203.44,7.94a8,8,0,0,1,6.35,2.69,10.53,10.53,0,0,1,2.33,7.18V32.07h-6.37V18.81q0-5.28-4.1-5.28a5.26,5.26,0,0,0-2.81.74A4.84,4.84,0,0,0,197,16.41a7.88,7.88,0,0,0-.63,3.27V32.07H190V8.51h4.36l1.27,2.92a8.29,8.29,0,0,1,1.5-1.46A10.68,10.68,0,0,1,199,8.88a10.54,10.54,0,0,1,2.12-.7A11,11,0,0,1,203.44,7.94Z"/><path class="cls-1" d="M235.3,0h6.37V32.07H237l-.74-2a11,11,0,0,1-7.37,2.66,12.7,12.7,0,0,1-6.37-1.61A11.53,11.53,0,0,1,218,26.69a13,13,0,0,1-1.59-6.4A12.81,12.81,0,0,1,218,13.92a11.55,11.55,0,0,1,4.43-4.45,12.59,12.59,0,0,1,6.37-1.61,11.4,11.4,0,0,1,6.46,1.92ZM224.74,24.92a6.67,6.67,0,0,0,9.2,0,6.3,6.3,0,0,0,1.84-4.63,6.44,6.44,0,1,0-12.88,0A6.25,6.25,0,0,0,224.74,24.92Z"/></g></g></svg>