<svg xmlns="http://www.w3.org/2000/svg" width="4201.333" height="956" version="1.0" viewBox="0 0 3151 717"><g transform="matrix(.1 0 0 -.1 0 717)" fill="#1a1921" class="color000 svgShape"><path d="M1775 7164c-310-23-570-90-810-208-493-241-797-633-921-1187l-26-114-9-875c-13-1331-5-1691 47-1920 36-160 118-365 200-503 268-444 693-716 1289-824 146-26 642-26 800 0 317 54 561 147 805 310 108 71 333 300 405 411 123 189 209 401 260 646 26 122 27 139 35 630 5 278 9 598 9 711l1 206-27 14c-23 12-180 14-949 17-899 3-922 2-945-17l-24-19 0-286c0-260 2-287 18-303 16-17 57-18 577-23 307-3 562-9 567-13 13-13 16-483 4-672-12-206-33-293-101-432-41-84-66-119-137-194-148-155-287-236-498-289-227-58-486-61-715-11-234 52-465 189-609 361-110 131-188 304-222 490-17 93-20 172-25 695-3 325-1 869 4 1210l9 620 27 100c33 121 106 278 170 362 65 86 208 218 286 263 363 210 885 227 1260 40 138-69 289-201 387-338 106-148 172-390 173-633 0-111-26-104 370-107 382-3 383-3 396 63 9 49-12 367-31 455-95 452-354 822-746 1065-243 151-545 253-839 284-109 11-391 20-465 15zM13428 7093c-10-2-21-17-25-31-5-15-8-1247-8-2739 0-2590 1-2713 18-2730 16-16 46-18 325-21 347-4 386-1 404 31 10 17 14 314 19 1357 5 1305 6 1337 26 1405 51 175 106 270 228 390 97 96 163 137 294 181 81 28 118 35 217 40 284 15 486-55 654-225 89-90 149-191 199-334l36-102 7-1311c4-720 11-1335 15-1364 8-53 9-54 48-62 22-5 180-7 352-6 284 3 314 5 330 21 17 17 18 89 18 1470-1 1606 4 1484-65 1702-65 202-155 351-305 501-191 192-392 296-690 356-150 31-513 33-645 5-273-59-438-143-627-322l-92-86-3 922-3 921-24 19c-22 18-42 19-355 18-182-1-339-3-348-6zM30778 7093c-9-2-20-12-25-21-4-9-8-345-9-747-1-990-2-1075-14-1075-6 0-41 29-79 64-137 128-300 226-477 285-260 87-650 78-955-22-509-167-866-601-1003-1219-58-263-61-301-61-753 0-392 2-430 23-565 57-351 166-653 323-889 69-105 247-294 339-362 254-187 562-279 930-281 337-1 612 106 869 340 44 39 84 72 89 72 13 0 22-86 22-211 0-87 3-109 17-120 13-11 80-15 317-17 364-4 400-1 415 36 8 20 11 774 9 2745-3 2678-3 2719-22 2733-16 11-80 14-355 13-185-1-343-3-353-6zm-693-2133c122-38 202-87 296-180 162-161 253-366 310-700 27-161 38-627 20-831-31-335-110-589-235-756-108-143-247-244-397-287-133-39-342-35-492 9-145 42-199 75-318 194-88 89-113 121-152 198-60 117-119 294-152 455-30 152-50 474-40 668 33 638 280 1097 659 1220 140 45 373 50 501 10zM7949 5640c-390-62-668-197-915-444-247-247-393-558-456-970-19-127-21-185-22-576-1-488 6-568 80-868 43-177 71-256 140-397 254-522 698-820 1308-876 146-14 442-5 576 16 326 53 635 187 865 375 141 115 316 320 340 398 10 35-47 84-260 228-205 137-265 174-288 174-8 0-51-46-95-102-90-116-160-186-247-245-179-121-369-175-610-175-273 0-503 66-678 194-233 172-351 416-364 751l-6 147 94 1c52 1 635 5 1296 8 969 5 1205 9 1215 19 20 20 16 592-6 781-82 722-365 1206-829 1421-181 83-394 134-631 150-205 14-375 11-507-10zm539-679c246-61 447-221 560-446 62-124 89-243 116-517 10-97 101-88-936-88l-911 0 6 99c12 205 80 457 158 587 51 85 170 207 252 258 92 57 204 102 303 121 110 20 340 13 452-14zM18460 5646c-377-52-655-170-915-388-296-248-469-579-560-1068-58-311-60-822-5-1151 78-466 230-791 489-1049 236-235 495-371 851-447 117-26 142-27 385-28 236 0 271 2 375 24 342 70 613 212 841 440 203 203 326 418 419 729 84 280 110 489 110 884 0 323-8 437-46 630-108 556-373 956-802 1209-170 101-332 160-547 200-140 26-454 34-595 15zm501-689c261-68 465-243 583-499 105-226 144-556 126-1038-13-344-49-534-136-717-160-336-455-525-824-526-473-2-810 270-926 748-51 211-59 303-58 675 0 313 2 357 23 474 32 184 63 285 127 414 48 98 67 125 151 212 53 55 118 117 145 137 84 61 236 119 388 147 14 3 88 3 165 1 108-3 162-9 236-28zM26165 5644c-304-44-520-144-720-335l-92-89-6 83c-4 45-7 121-7 168 0 53-5 92-13 102-11 16-41 18-369 15-196-2-360-7-365-11-9-10-17-3879-8-3944 5-35 11-43 37-52 42-15 634-15 676 0 17 6 32 20 36 32 3 12 6 373 7 802 1 429 4 1030 8 1335l7 555 27 88c90 292 288 485 587 568 28 8 109 13 215 13 149 0 179-2 245-23 274-84 447-262 546-561l28-85 7-1335c4-917 10-1343 17-1362 15-37 43-40 404-36 279 3 309 5 325 21 17 17 18 67 21 845 1 455-1 1122-6 1482-9 630-10 658-31 735-77 278-169 445-340 615-191 190-414 302-706 356-86 16-456 28-530 18zM5865 5613c-102-21-233-73-327-129-91-54-276-229-364-344l-49-65-5 235c-4 165-9 242-18 258l-13 22-347 0c-285 0-352-3-368-14-19-14-19-46-19-1990 0-1883 1-1976 18-1993 16-17 45-18 362-18 269 0 347 3 357 13 19 19 25 379 27 1542l2 995 37 110c84 248 216 401 437 506 116 55 188 74 340 90 140 15 263 7 393-25 146-36 143-38 181 126 57 240 111 528 105 553-12 47-167 115-308 134-111 16-357 12-441-6z" fill="#1a1921" class="color000 svgShape"/><path d="M9822 5578c-29-29-81 134 836-2588 236-701 439-1309 452-1351l22-77-61-183c-181-538-341-686-792-729-250-24-242-23-256-50-19-36-14-563 5-582 10-10 61-13 215-11 643 5 979 155 1224 548 72 115 155 290 226 475 110 288 1537 4482 1537 4516 0 7-7 20-16 28-13 14-61 16-372 16-196 0-362-4-368-8-33-21-64-120-468-1480-325-1092-461-1540-470-1549-3-4-9-4-12 0-7 7-81 245-295 957-573 1900-609 2017-635 2058l-14 22-373 0c-277 0-376-3-385-12zM20860 5580c-13-8-15-184-18-1462-2-1034 0-1476 8-1532 56-390 301-717 680-906 251-126 582-186 877-160 335 29 570 134 768 341 46 49 86 89 88 89 2 0 7-74 11-166 4-98 11-173 18-184 18-28 73-32 411-28 274 3 300 4 312 21 23 32 26 302 23 2155-3 1782-3 1814-22 1828-29 21-683 21-712 0-18-14-19-37-25-688-4-370-7-975-8-1345l-1-672-26-83c-37-116-94-234-142-295-65-81-188-182-271-220-214-100-491-116-716-42-255 85-407 254-488 544l-26 90-4 1349c-3 1302-4 1349-22 1362-15 11-87 14-359 14-198 0-347-4-356-10z" fill="#1a1921" class="color000 svgShape"/></g></svg>