<svg id="SvgjsSvg1013" width="288" height="288" xmlns="http://www.w3.org/2000/svg" version="1.1" xmlns:xlink="http://www.w3.org/1999/xlink" xmlns:svgjs="http://svgjs.com/svgjs"><defs id="SvgjsDefs1014"></defs><g id="SvgjsG1015"><svg xmlns="http://www.w3.org/2000/svg" xmlns:svgjs="http://svgjs.com/svgjs" xmlns:xlink="http://www.w3.org/1999/xlink" width="288" height="288"><svg xmlns="http://www.w3.org/2000/svg" width="288" height="288" enable-background="new 0 0 2000 2000" viewBox="0 0 2000 2000"><polygon fill="#ffffff" fill-rule="evenodd" points="1200.14 1492.69 1200.27 1492.43 1200.24 1492.35 1200.32 1492.32 1235.65 1417.12 1164.76 1385.33 1118.35 1482.48 1125.56 1502.29 1169.03 1538.87 1207.1 1511.26 1200.4 1492.81" class="colorfff svgShape color000 color1a1921" clip-rule="evenodd"></polygon><polygon fill="#ffffff" fill-rule="evenodd" points="1378.12 1113.89 1268.12 944.29 1228.46 918.38 973.39 752.32 830.32 980.16 814.83 1128.35 986.11 1290.65 1241.29 1405.1" class="colorfff svgShape color000 color1a1921" clip-rule="evenodd"></polygon><path fill="#ffffff" fill-rule="evenodd" d="M1133.62,1526.59l-96.62,57.22c0,0-0.37,20.54,9.57,20.54c9.94,0,32.17,0,32.17,0l79.12-57.38L1133.62,1526.59  z" class="colorfff svgShape color000 color1a1921" clip-rule="evenodd"></path><polygon fill="#ffffff" fill-rule="evenodd" points="1537.51 1359.64 1386.63 1127 1214.63 1493.08 1221.55 1512.13 1411.13 1672.26 1544.28 1625.12 1580.11 1492.84" class="colorfff svgShape color000 color1a1921" clip-rule="evenodd"></polygon><path fill="#ffffff" fill-rule="evenodd" d="M1042.62,1646.96l1,2.88c0,0,2.58,25.86,11.96,26.17c9.38,0.31,339.77,0.31,339.77,0.31l-181.66-153.43  L1042.62,1646.96z" class="colorfff svgShape color000 color1a1921" clip-rule="evenodd"></path><polyline fill="#ffffff" fill-rule="evenodd" points="810.51 525.4 729.21 576.88 669.7 781.14 672.05 854.71 822.5 642.72 832.99 451.61" class="colorfff svgShape color000 color1a1921" clip-rule="evenodd"></polyline><polygon fill="#ffffff" fill-rule="evenodd" points="773.9 325.43 465.42 400.24 441.57 451.01 691.6 500.6" class="colorfff svgShape color000 color1a1921" clip-rule="evenodd"></polygon><path fill="#ffffff" fill-rule="evenodd" d="M431.65,408.43c-11.09,2.83,0,32.46,0,32.46l17.21-36.64C448.86,404.26,442.74,405.6,431.65,408.43z" class="colorfff svgShape color000 color1a1921" clip-rule="evenodd"></path><polygon fill="#ffffff" fill-rule="evenodd" points="756.69 1656.99 853.18 1182.98 850.57 1180.51 801.35 1133.87 801.94 1133.24 800.98 1133.14 817.42 975.79 817.39 975.77 965.98 739.16 844.11 451.61 835.6 647.21 835.5 647.2 835.57 647.25 672.75 876.67 672.95 882.98 731.87 1117.64 731.87 1603" class="colorfff svgShape color000 color1a1921" clip-rule="evenodd"></polygon><polygon fill="#ffffff" fill-rule="evenodd" points="797.41 1604.36 899.46 1226.83 864.65 1193.85 781.08 1604.36" class="colorfff svgShape color000 color1a1921" clip-rule="evenodd"></polygon><path fill="#ffffff" fill-rule="evenodd" d="M750.81 1676.31l-29.3-63.73-61.36 48.59c0 0-1.02 15.14 6.96 15.14S750.81 1676.31 750.81 1676.31zM799.14 516.69c0 0 39.28-128.26 45.21-149.17 5.93-20.91-54.52-44.16-54.52-44.16l-87.11 184.8-6.85 20.49 30.28 34.43L799.14 516.69z" class="colorfff svgShape color000 color1a1921" clip-rule="evenodd"></path></svg></svg></g></svg>