<svg xmlns="http://www.w3.org/2000/svg" viewBox="0 0 198.02 33.26"><defs><style>.cls-1{fill:#1c1b22;}</style></defs><g id="Layer_2" data-name="Layer 2"><g id="Layer_1-2" data-name="Layer 1"><path class="cls-1" d="M12.41,13.19H25.74A13.87,13.87,0,0,1,22.13,23a12,12,0,0,1-9.19,3.85A12.65,12.65,0,0,1,0,13.8,12.86,12.86,0,0,1,3.65,4.43,12.35,12.35,0,0,1,12.84.72,13.09,13.09,0,0,1,21,3.38a11.2,11.2,0,0,1,4.37,6.88H19.81a6.76,6.76,0,0,0-1.54-2.34A6.93,6.93,0,0,0,15.89,6.4a8,8,0,0,0-3-.54,7.07,7.07,0,0,0-5.4,2.22A8.06,8.06,0,0,0,5.47,13.8a8.7,8.7,0,0,0,.93,4.08A6.87,6.87,0,0,0,9,20.67a7.53,7.53,0,0,0,3.91,1,8.49,8.49,0,0,0,3-.54,6.82,6.82,0,0,0,2.45-1.52,6,6,0,0,0,1.49-2.23H12.41Z"/><path class="cls-1" d="M39.3,6.87H41V11.8H38.76a4.11,4.11,0,0,0-3.16,1,4.91,4.91,0,0,0-1,3.39V26.28H29.43V7h3.36l.93,2.36A6.73,6.73,0,0,1,39.3,6.87Z"/><path class="cls-1" d="M62.29,16.56a11.48,11.48,0,0,1-.11,1.53H47.59a4.85,4.85,0,0,0,1.56,3,4.66,4.66,0,0,0,3.16,1.06,5,5,0,0,0,2.4-.59A4.38,4.38,0,0,0,56.39,20H61.9a9.91,9.91,0,0,1-9.59,6.87,9.6,9.6,0,0,1-7.15-2.93,10,10,0,0,1-2.86-7.26,11.19,11.19,0,0,1,.48-3.29,9.48,9.48,0,0,1,1.4-2.83,10.15,10.15,0,0,1,2.13-2.16,9.17,9.17,0,0,1,2.75-1.41,10.24,10.24,0,0,1,3.25-.5,10,10,0,0,1,5.2,1.36,9.24,9.24,0,0,1,3.55,3.68A10.69,10.69,0,0,1,62.29,16.56Zm-10-5.69a4.52,4.52,0,0,0-3,1,4.74,4.74,0,0,0-1.62,2.68h9.33a5.61,5.61,0,0,0-1-2A4.6,4.6,0,0,0,54.4,11.3,4.92,4.92,0,0,0,52.31,10.87Z"/><path class="cls-1" d="M78.59,7h5.58L75.73,26a16.31,16.31,0,0,1-3.64,5.62,7.46,7.46,0,0,1-5,1.61H64.9V28.54h1.82a4.09,4.09,0,0,0,2.65-.68A8.6,8.6,0,0,0,71.09,25l.07-.14L63,7h5.68L73.8,18.84Z"/><path class="cls-1" d="M97.83,6.51A6.55,6.55,0,0,1,103,8.69a8.64,8.64,0,0,1,1.89,5.86V26.28H99.69V15.41a5.44,5.44,0,0,0-.8-3.25,3,3,0,0,0-2.56-1.07,4,4,0,0,0-3.15,1.35A5.48,5.48,0,0,0,92,16.13V26.28H86.78V0H92V8.76A8.14,8.14,0,0,1,97.83,6.51Z"/><path class="cls-1" d="M118.89,26.82a10.92,10.92,0,0,1-5.36-1.32,9.63,9.63,0,0,1-3.74-3.67,10.33,10.33,0,0,1-1.34-5.2,9.78,9.78,0,0,1,3-7.3,11.06,11.06,0,0,1,14.91,0,9.78,9.78,0,0,1,3,7.3,9.74,9.74,0,0,1-3,7.27A10.17,10.17,0,0,1,118.89,26.82Zm0-4.9a4.91,4.91,0,0,0,3.69-1.48A5.28,5.28,0,0,0,124,16.63a5.28,5.28,0,0,0-1.43-3.81,5.38,5.38,0,0,0-7.41,0,5.28,5.28,0,0,0-1.43,3.81,6,6,0,0,0,.38,2.14,4.62,4.62,0,0,0,1,1.68,5.1,5.1,0,0,0,1.63,1.08A5.44,5.44,0,0,0,118.89,21.92Z"/><path class="cls-1" d="M148.45,24.44a10.25,10.25,0,0,1-13.16,0,8.31,8.31,0,0,1-2.49-6.29V7H138V17.52a4.77,4.77,0,0,0,1,3.24,4,4,0,0,0,5.65,0,4.77,4.77,0,0,0,1-3.24V7h5.22V18.13A8.34,8.34,0,0,1,148.45,24.44Z"/><path class="cls-1" d="M166.7,6.51a6.52,6.52,0,0,1,5.2,2.2,8.6,8.6,0,0,1,1.92,5.88V26.28H168.6V15.41c0-2.88-1.13-4.32-3.37-4.32a4.31,4.31,0,0,0-2.3.6,3.82,3.82,0,0,0-1.5,1.76,6.34,6.34,0,0,0-.52,2.68V26.28h-5.22V7h3.57l1,2.4a7,7,0,0,1,1.23-1.2,8.78,8.78,0,0,1,1.52-.89,8.45,8.45,0,0,1,3.65-.77Z"/><path class="cls-1" d="M192.8,0H198V26.28h-3.86l-.61-1.61a9,9,0,0,1-6,2.18,10.38,10.38,0,0,1-5.22-1.32,9.39,9.39,0,0,1-3.63-3.66,10.58,10.58,0,0,1-1.3-5.24,10.48,10.48,0,0,1,1.3-5.22,9.43,9.43,0,0,1,3.63-3.65,10.38,10.38,0,0,1,5.22-1.32A9.29,9.29,0,0,1,192.8,8Zm-8.65,20.42a5.47,5.47,0,0,0,7.55,0,5.18,5.18,0,0,0,1.5-3.79,5.28,5.28,0,1,0-10.55,0A5.15,5.15,0,0,0,184.15,20.42Z"/></g></g></svg>