<svg xmlns="http://www.w3.org/2000/svg" xmlns:xlink="http://www.w3.org/1999/xlink" viewBox="0 0 82.23 82.22"><defs><style>.cls-1{fill:#ce5c6c;}.cls-2{fill:#7f3f4b;}.cls-3{fill:url(#linear-gradient);}</style><linearGradient id="linear-gradient" x1="55.72" y1="33.1" x2="39.84" y2="80.72" gradientUnits="userSpaceOnUse"><stop offset="0" stop-color="#a6b1cf"/><stop offset="1" stop-color="#a6b1cf" stop-opacity="0"/></linearGradient></defs><g id="Layer_2" data-name="Layer 2"><g id="Layer_1-2" data-name="Layer 1"><path class="cls-1" d="M39.72,0A41.11,41.11,0,0,0,3.57,57.86C4.3,49.75,6.89,41.53,11,37.6c11.42.18,13.78-4.93,13.78-4.93-8.76,4.16-15.09,1.54-15.09,1.54v0c.09-.76,1.83-12.3,16.93-13.53a58.59,58.59,0,0,1,6.8.15,14.38,14.38,0,0,0-3.61-1.51,14.54,14.54,0,0,1,4.81-2.53,15.43,15.43,0,0,1,4.48-.61h2.38a20.52,20.52,0,0,1,12.24,4c4.79,3.53,12.49,8.14,20.34,8.28a1.5,1.5,0,0,1,1.48,1.49c-1.16,11.66-16.84,12.2-24.7,11.73a19.06,19.06,0,0,0-15.05,5.79c-4.49,4.77-9.67,17.18,2,26.33a21.37,21.37,0,0,0,14.64,4.53,27.49,27.49,0,0,0,18.14-8.6A41.1,41.1,0,0,0,39.72,0Z"/><path class="cls-2" d="M76.54,62c-.69,1-9.5,13-27.08,9.68C27.13,67.38,34,49.79,34.09,49.67c-3.81,5.72-6.42,16.16,3.76,24.12a21.26,21.26,0,0,0,14.64,4.52,27.44,27.44,0,0,0,18.14-8.59A41,41,0,0,0,76.54,62Z"/><path class="cls-3" d="M31.5,55.19a16.88,16.88,0,0,0-.34,8.9c.06.2.11.42.17.63s.13.43.21.65.23.64.36,1,.39.85.61,1.28c.12.23.25.46.4.7.23.39.48.78.76,1.18s.53.72.83,1.07.47.55.73.83a21.93,21.93,0,0,0,2.62,2.39,22.44,22.44,0,0,0,2.41,1.65q.41.24.81.45a19.14,19.14,0,0,0,2.07,1c.42.17.84.32,1.25.46.57.18,1.13.34,1.69.46l.85.18a23.09,23.09,0,0,0,5.56.36,24.47,24.47,0,0,0,4.45-.63l1.24-.33.61-.18q.6-.19,1.2-.42s0,0,0,0c.59-.22,1.18-.46,1.76-.73.78-.35,1.54-.74,2.28-1.16.37-.22.74-.44,1.1-.67.72-.45,1.42-.94,2.11-1.47.34-.26.67-.52,1-.8h0q.73-.61,1.44-1.29s0,0,0,0l.46-.44a41.09,41.09,0,0,1-49.93,6.33S15.51,51.7,32,40.93s35.4,2.59,43.17-8.8c-2.8,9.54-16.95,10-24.28,9.53a19.12,19.12,0,0,0-15.05,5.79,18.49,18.49,0,0,0-2.73,3.87A20.12,20.12,0,0,0,31.5,55.19Z"/></g></g></svg>