<?xml version="1.0" encoding="utf-8"?>
<!-- Generator: Adobe Illustrator 24.2.0, SVG Export Plug-In . SVG Version: 6.00 Build 0)  -->
<svg version="1.1" id="Layer_1" xmlns="http://www.w3.org/2000/svg" xmlns:xlink="http://www.w3.org/1999/xlink" x="0px" y="0px"
	 viewBox="0 0 600 700" style="enable-background:new 0 0 600 700;" xml:space="preserve">
<style type="text/css">
	.st0{fill:#CE5C6D;}
	.st1{opacity:0.2;fill:#FFFFFF;enable-background:new    ;}
	.st2{opacity:0.2;}
	.st3{fill:#FFFFFF;}
</style>
<g>
	<polygon id="piece-iii_1_" class="st0" points="414,489.8 414.5,488.7 414.4,488.3 414.8,488.2 564.3,169.8 264.2,35.2 67.7,446.5 
		98.3,530.4 282.3,685.3 443.5,568.4 415.1,490.3 	"/>
	<polygon id="piece-v" class="st1" points="1167.5,-1113.9 701.8,-1831.9 533.9,-1941.6 -545.9,-2644.6 -1151.6,-1680 
		-1217.2,-1052.7 -492.1,-365.6 588.2,118.9 	"/>
	<path id="piece-i" class="st1" d="M132.4,633.3l-409,242.2c0,0-1.6,87,40.5,87s136.2,0,136.2,0l335-242.9L132.4,633.3z"/>
	<polygon id="piece-iv" class="st1" points="1842.2,-73.5 1203.5,-1058.4 475.3,491.4 504.6,572.1 1307.2,1250 1870.9,1050.4 
		2022.6,490.4 	"/>
	<path id="piece-ii" class="st1" d="M-252.9,1142.9l4.2,12.2c0,0,10.9,109.5,50.6,110.8s1438.4,1.3,1438.4,1.3L471.4,617.6
		L-252.9,1142.9z"/>
	<polyline class="st1" points="-1235.5,-3605.3 -1579.7,-3387.3 -1831.6,-2522.6 -1821.7,-2211.1 -1184.7,-3108.6 -1140.3,-3917.6 	
		"/>
	<polygon class="st1" points="-1390.5,-4451.8 -2696.4,-4135.1 -2797.4,-3920.2 -1738.9,-3710.2 	"/>
	<path class="st1" d="M-2839.4-4100.4c-46.9,12,0,137.4,0,137.4l72.9-155.1C-2766.5-4118.1-2792.4-4112.4-2839.4-4100.4z"/>
	<g class="st2">
		<g>
			<polygon class="st3" points="-1463.3,1185.3 -1054.9,-821.4 -1065.9,-831.9 -1274.3,-1029.3 -1271.8,-1032 -1275.8,-1032.4 
				-1206.2,-1698.5 -1206.4,-1698.6 -577.3,-2700.3 -1093.3,-3917.6 -1129.3,-3089.6 -1129.7,-3089.6 -1129.4,-3089.4 
				-1818.7,-2118.2 -1817.9,-2091.4 -1568.4,-1098 -1568.4,956.7 			"/>
			<polygon class="st3" points="-1291,962.5 -858.9,-635.8 -1006.3,-775.4 -1360.1,962.5 			"/>
		</g>
		<path class="st3" d="M-1488.2,1267.1l-124-269.8L-1872,1203c0,0-4.3,64.1,29.5,64.1C-1808.8,1267.1-1488.2,1267.1-1488.2,1267.1z"
			/>
	</g>
	<path id="piece-x" class="st1" d="M-1283.6-3642.1c0,0,166.3-543,191.4-631.5s-230.8-187-230.8-187l-368.8,782.3l-29,86.7
		l128.2,145.8L-1283.6-3642.1z"/>
</g>
</svg>
