<?xml version="1.0" encoding="utf-8"?>
<!-- Generator: Adobe Illustrator 24.2.0, SVG Export Plug-In . SVG Version: 6.00 Build 0)  -->
<svg version="1.1" id="Layer_1" xmlns="http://www.w3.org/2000/svg" xmlns:xlink="http://www.w3.org/1999/xlink" x="0px" y="0px"
	 viewBox="0 0 600 700" style="enable-background:new 0 0 600 700;" xml:space="preserve">
<style type="text/css">
	.st0{opacity:0.2;fill:#FFFFFF;enable-background:new    ;}
	.st1{fill:#CE5C6D;}
	.st2{opacity:0.2;}
	.st3{fill:#FFFFFF;}
</style>
<g>
	<polygon id="piece-iii_1_" class="st0" points="736.6,21.8 737.1,20.7 737,20.3 737.4,20.2 886.9,-298.2 586.8,-432.8 390.3,-21.5 
		420.9,62.4 604.9,217.3 766.1,100.4 737.7,22.3 	"/>
	<polygon id="piece-v" class="st0" points="1490.1,-1581.9 1024.4,-2299.9 856.5,-2409.6 -223.3,-3112.6 -829,-2148 -894.6,-1520.7 
		-169.5,-833.6 910.8,-349.1 	"/>
	<path id="piece-i" class="st1" d="M455,165.3L46,407.5c0,0-1.6,87,40.5,87s136.2,0,136.2,0l335-242.9L455,165.3z"/>
	<polygon id="piece-iv" class="st0" points="2164.8,-541.5 1526.1,-1526.4 797.9,23.4 827.2,104.1 1629.8,782 2193.5,582.4 
		2345.2,22.4 	"/>
	<path id="piece-ii" class="st0" d="M69.7,674.9l4.2,12.2c0,0,10.9,109.5,50.6,110.8s1438.4,1.3,1438.4,1.3L794,149.6L69.7,674.9z"
		/>
	<polyline class="st0" points="-912.9,-4073.3 -1257.1,-3855.3 -1509,-2990.6 -1499.1,-2679.1 -862.1,-3576.6 -817.7,-4385.6 	"/>
	<polygon class="st0" points="-1067.9,-4919.8 -2373.8,-4603.1 -2474.8,-4388.2 -1416.3,-4178.2 	"/>
	<path class="st0" d="M-2516.8-4568.4c-46.9,12,0,137.4,0,137.4l72.9-155.1C-2443.9-4586.1-2469.8-4580.4-2516.8-4568.4z"/>
	<g class="st2">
		<g>
			<polygon class="st3" points="-1140.7,717.3 -732.3,-1289.4 -743.3,-1299.9 -951.7,-1497.3 -949.2,-1500 -953.2,-1500.4 
				-883.6,-2166.5 -883.8,-2166.6 -254.7,-3168.3 -770.7,-4385.6 -806.7,-3557.6 -807.1,-3557.6 -806.8,-3557.4 -1496.1,-2586.2 
				-1495.3,-2559.4 -1245.8,-1566 -1245.8,488.7 			"/>
			<polygon class="st3" points="-968.4,494.5 -536.3,-1103.8 -683.7,-1243.4 -1037.5,494.5 			"/>
		</g>
		<path class="st3" d="M-1165.6,799.1l-124-269.8L-1549.4,735c0,0-4.3,64.1,29.5,64.1C-1486.2,799.1-1165.6,799.1-1165.6,799.1z"/>
	</g>
	<path id="piece-x" class="st0" d="M-961-4110.1c0,0,166.3-543,191.4-631.5s-230.8-187-230.8-187l-368.8,782.3l-29,86.7l128.2,145.8
		L-961-4110.1z"/>
</g>
</svg>
