<?xml version="1.0" encoding="utf-8"?>
<!-- Generator: Adobe Illustrator 24.2.0, SVG Export Plug-In . SVG Version: 6.00 Build 0)  -->
<svg version="1.1" id="Layer_1" xmlns="http://www.w3.org/2000/svg" xmlns:xlink="http://www.w3.org/1999/xlink" x="0px" y="0px"
	 viewBox="0 0 600 700" style="enable-background:new 0 0 600 700;" xml:space="preserve">
<style type="text/css">
	.st0{opacity:0.2;fill:#FFFFFF;enable-background:new    ;}
	.st1{fill:#CE5C6D;}
	.st2{opacity:0.2;}
	.st3{fill:#FFFFFF;}
</style>
<g>
	<polygon id="piece-iii_1_" class="st0" points="114.2,451.5 114.3,451.2 114.3,451.1 114.4,451.1 151.6,371.9 77,338.4 28.1,440.7 
		35.7,461.5 81.5,500.1 121.6,471 114.5,451.6 	"/>
	<polygon id="piece-v" class="st0" points="301.5,52.8 185.8,-125.7 144,-152.9 -124.4,-327.7 -275,-87.9 -291.3,68 -111,238.8 
		157.5,359.3 	"/>
	<path id="piece-i" class="st0" d="M44.2,487.1l-101.7,60.2c0,0-0.4,21.6,10.1,21.6s33.9,0,33.9,0l83.3-60.4L44.2,487.1z"/>
	<polygon id="piece-iv" class="st1" points="469.2,311.4 310.5,66.6 129.5,451.9 136.7,471.9 336.3,640.4 476.4,590.8 514.1,451.6 	
		"/>
	<path id="piece-ii" class="st0" d="M-51.6,613.8l1,3c0,0,2.7,27.2,12.6,27.5s357.6,0.3,357.6,0.3L128.5,483.2L-51.6,613.8z"/>
	<polyline class="st0" points="-295.8,-566.5 -381.4,-512.3 -444,-297.4 -441.5,-219.9 -283.2,-443 -272.1,-644.1 	"/>
	<polygon class="st0" points="-334.3,-776.9 -659,-698.2 -684.1,-644.8 -420.9,-592.6 	"/>
	<path class="st0" d="M-694.5-689.6c-11.7,3,0,34.2,0,34.2l18.1-38.6C-676.4-694-682.8-692.6-694.5-689.6z"/>
	<g class="st2">
		<g>
			<polygon class="st3" points="-352.4,624.3 -250.9,125.5 -253.7,122.9 -305.5,73.8 -304.8,73.2 -305.8,73.1 -288.5,-92.5 
				-288.6,-92.5 -132.2,-341.5 -260.5,-644.1 -269.4,-438.3 -269.5,-438.3 -269.4,-438.3 -440.8,-196.8 -440.6,-190.2 -378.6,56.8 
				-378.6,567.5 			"/>
			<polygon class="st3" points="-309.6,569 -202.2,171.6 -238.8,136.9 -326.8,569 			"/>
		</g>
		<path class="st3" d="M-358.6,644.7l-30.8-67.1l-64.6,51.1c0,0-1.1,15.9,7.3,15.9C-438.3,644.7-358.6,644.7-358.6,644.7z"/>
	</g>
	<path id="piece-x" class="st0" d="M-307.8-575.7c0,0,41.3-135,47.6-157c6.2-22-57.4-46.5-57.4-46.5l-91.7,194.5l-7.2,21.6
		l31.9,36.2L-307.8-575.7z"/>
</g>
</svg>
