<?xml version="1.0" encoding="utf-8"?>
<!-- Generator: Adobe Illustrator 24.2.0, SVG Export Plug-In . SVG Version: 6.00 Build 0)  -->
<svg version="1.1" id="Layer_1" xmlns="http://www.w3.org/2000/svg" xmlns:xlink="http://www.w3.org/1999/xlink" x="0px" y="0px"
	 viewBox="0 0 600 700" style="enable-background:new 0 0 600 700;" xml:space="preserve">
<style type="text/css">
	.st0{opacity:0.2;fill:#FFFFFF;enable-background:new    ;}
	.st1{opacity:0.2;}
	.st2{fill:#FFFFFF;}
	.st3{fill:#CE5C6D;}
</style>
<g>
	<polygon id="piece-iii_1_" class="st0" points="2539.5,-363.4 2540,-364.6 2539.9,-365 2540.3,-365.1 2699.2,-703.5 2380.3,-846.6 
		2171.4,-409.4 2203.9,-320.3 2399.5,-155.6 2570.8,-279.9 2540.7,-362.9 	"/>
	<polygon id="piece-v" class="st0" points="3340.4,-2067.9 2845.4,-2831.1 2666.9,-2947.6 1519.3,-3694.8 875.5,-2669.6 
		805.8,-2002.9 1576.4,-1272.6 2724.6,-757.6 	"/>
	<path id="piece-i" class="st0" d="M2240.2-210.9L1805.5,46.5c0,0-1.7,92.5,43,92.5c44.7,0,144.8,0,144.8,0l356.1-258.2
		L2240.2-210.9z"/>
	<polygon id="piece-iv" class="st0" points="4057.5,-962.1 3378.6,-2008.9 2604.6,-361.7 2635.8,-275.9 3488.8,444.6 4088,232.4 
		4249.2,-362.8 	"/>
	<path id="piece-ii" class="st0" d="M1830.7,330.7l4.5,13c0,0,11.6,116.4,53.8,117.8c42.2,1.4,1528.8,1.4,1528.8,1.4l-817.2-690.4
		L1830.7,330.7z"/>
	<polyline class="st0" points="786.3,-4715.9 420.5,-4484.2 152.7,-3565.2 163.3,-3234.1 840.3,-4188 887.5,-5047.9 	"/>
	<polygon class="st0" points="621.6,-5615.6 -766.4,-5279 -873.8,-5050.6 251.3,-4827.4 	"/>
	<path class="st0" d="M-918.4-5242.1c-49.8,12.8,0,146,0,146l77.5-164.8C-840.9-5261-868.5-5254.9-918.4-5242.1z"/>
	<g class="st1">
		<g>
			<polygon class="st2" points="544.2,375.8 978.3,-1757 966.6,-1768.2 745.1,-1978 747.7,-1980.9 743.5,-1981.3 817.5,-2689.3 
				817.2,-2689.4 1485.9,-3754 937.4,-5047.9 899.2,-4167.8 898.8,-4167.8 899.1,-4167.6 166.5,-3135.3 167.3,-3106.9 432.5,-2051 
				432.5,132.8 			"/>
			<polygon class="st2" points="727.3,139 1186.6,-1559.8 1029.9,-1708.1 653.9,139 			"/>
		</g>
		<path class="st3" d="M517.7,462.7L385.9,176L109.8,394.6c0,0-4.6,68.1,31.4,68.1C177,462.7,517.7,462.7,517.7,462.7z"/>
	</g>
	<path id="piece-x" class="st0" d="M735.2-4755c0,0,176.8-577.1,203.4-671.2S693.3-5625,693.3-5625l-392,831.5l-30.8,92.1l136.3,155
		L735.2-4755z"/>
</g>
<path class="st3" d="M517.7,462.7L385.9,176L109.8,394.6c0,0-4.6,68.1,31.4,68.1C177,462.7,517.7,462.7,517.7,462.7z"/>
</svg>
