<?xml version="1.0" encoding="utf-8"?>
<!-- Generator: Adobe Illustrator 24.2.0, SVG Export Plug-In . SVG Version: 6.00 Build 0)  -->
<svg version="1.1" id="Layer_1" xmlns="http://www.w3.org/2000/svg" xmlns:xlink="http://www.w3.org/1999/xlink" x="0px" y="0px"
	 viewBox="0 0 600 700" style="enable-background:new 0 0 600 700;" xml:space="preserve">
<style type="text/css">
	.st0{opacity:0.2;fill:#FFFFFF;enable-background:new    ;}
	.st1{opacity:0.2;enable-background:new    ;}
	.st2{fill:#FFFFFF;}
	.st3{fill:#CE5C6D;}
</style>
<g>
	<polygon id="piece-iii_1_" class="st0" points="1323.8,2862.5 1324.1,2861.8 1324,2861.6 1324.2,2861.5 1408.6,2681.8 
		1239.2,2605.8 1128.3,2838 1145.6,2885.4 1249.4,2972.8 1340.4,2906.8 1324.4,2862.7 	"/>
	<polygon id="piece-v" class="st0" points="1749.1,1957.2 1486.2,1551.9 1391.5,1489.9 781.9,1093.1 440,1637.6 403,1991.7 
		812.3,2379.6 1422.1,2653.1 	"/>
	<path id="piece-i" class="st0" d="M1164.8,2943.5l-230.9,136.7c0,0-0.9,49.1,22.9,49.1c23.8,0,76.9,0,76.9,0l189.1-137.1
		L1164.8,2943.5z"/>
	<polygon id="piece-iv" class="st0" points="2130,2544.5 1769.4,1988.5 1358.4,2863.4 1374.9,2908.9 1828,3291.6 2146.2,3178.9 
		2231.8,2862.8 	"/>
	<path id="piece-ii" class="st0" d="M947.3,3231.1l2.4,6.9c0,0,6.2,61.8,28.6,62.5s812,0.7,812,0.7l-434-366.7L947.3,3231.1z"/>
	<polyline class="st0" points="392.6,550.8 198.3,673.8 56.1,1162 61.7,1337.8 421.3,831.2 446.4,374.5 	"/>
	<polygon class="st0" points="305.1,72.9 -432,251.7 -489,373 108.5,491.6 	"/>
	<path class="st0" d="M-512.8,271.3c-26.5,6.8,0,77.6,0,77.6l41.2-87.6C-471.6,261.3-486.2,264.5-512.8,271.3z"/>
	<g class="st1">
		<g>
			<polygon class="st2" points="264.1,3255.1 494.6,2122.3 488.4,2116.4 370.7,2004.9 372.2,2003.4 369.9,2003.2 409.2,1627.2 
				409.1,1627.1 764.2,1061.7 472.9,374.5 452.6,841.9 452.4,841.9 452.5,842 63.4,1390.2 63.9,1405.4 204.7,1966.1 204.7,3126 			
				"/>
			<polygon class="st2" points="361.3,3129.3 605.2,2227.1 522,2148.3 322.3,3129.3 			"/>
		</g>
		<path class="st2" d="M250,3301.2l-70-152.3L33.3,3265c0,0-2.4,36.2,16.7,36.2C69,3301.2,250,3301.2,250,3301.2z"/>
	</g>
	<path id="piece-x" class="st3" d="M365.5,530c0,0,93.9-306.5,108-356.5C487.7,123.6,343.3,68,343.3,68L135.1,509.6l-16.4,48.9
		l72.4,82.3L365.5,530z"/>
</g>
<g>
	<path class="st3" d="M219.3,479.6c0-0.2,0.2-0.3,0.3-0.3c0.2,0,0.3,0.2,0.3,0.3c0,0.2-0.2,0.3-0.3,0.3
		C219.5,479.9,219.3,479.7,219.3,479.6z"/>
	<path class="st3" d="M220.7,479.6c0-0.2,0.2-0.3,0.3-0.3c0.2,0,0.3,0.2,0.3,0.3c0,0.2-0.2,0.3-0.3,0.3
		C220.8,479.9,220.7,479.7,220.7,479.6z"/>
	<path class="st3" d="M221.8,479.6c0-0.2,0.2-0.3,0.3-0.3c0.2,0,0.3,0.2,0.3,0.3c0,0.2-0.2,0.3-0.3,0.3
		C222,479.9,221.8,479.7,221.8,479.6z"/>
	<path class="st3" d="M223,479.6c0-0.2,0.2-0.3,0.3-0.3c0.2,0,0.3,0.2,0.3,0.3c0,0.2-0.2,0.3-0.3,0.3S223,479.7,223,479.6z"/>
	<path class="st3" d="M226.8,478.1v0.3h-1.5v-0.3H226.8z"/>
	<path class="st3" d="M229.9,478.1v0.3h-1.5v-0.3H229.9z"/>
	<path class="st3" d="M231.5,479.6c0-0.2,0.2-0.3,0.3-0.3c0.2,0,0.3,0.2,0.3,0.3c0,0.2-0.2,0.3-0.3,0.3S231.5,479.7,231.5,479.6z"/>
	<path class="st3" d="M234.2,478.1v0.3h-1.5v-0.3H234.2z"/>
	<path class="st3" d="M235.8,478.1v0.3h-1.3v-0.3H235.8z"/>
	<path class="st3" d="M236.3,479.6c0-0.2,0.2-0.3,0.3-0.3c0.2,0,0.3,0.2,0.3,0.3c0,0.2-0.2,0.3-0.3,0.3
		C236.5,479.9,236.3,479.7,236.3,479.6z"/>
	<path class="st3" d="M238.8,479.6c0-0.2,0.2-0.3,0.3-0.3c0.2,0,0.3,0.2,0.3,0.3c0,0.2-0.2,0.3-0.3,0.3
		C239,479.9,238.8,479.7,238.8,479.6z"/>
	<path class="st3" d="M240.1,479.6c0-0.2,0.2-0.3,0.3-0.3c0.2,0,0.3,0.2,0.3,0.3c0,0.2-0.2,0.3-0.3,0.3
		C240.1,479.9,240.1,479.7,240.1,479.6z"/>
	<path class="st3" d="M241.3,479.6c0-0.2,0.2-0.3,0.3-0.3c0.2,0,0.3,0.2,0.3,0.3c0,0.2-0.2,0.3-0.3,0.3
		C241.4,479.9,241.3,479.7,241.3,479.6z"/>
	<path class="st3" d="M245.1,478.1v0.3h-1.5v-0.3H245.1z"/>
	<path class="st3" d="M246.9,478.1v0.3h-1.5v-0.3H246.9z"/>
	<path class="st3" d="M248.7,478.1v0.3h-1.5v-0.3H248.7z"/>
	<path class="st3" d="M249.2,479.6c0-0.2,0.2-0.3,0.3-0.3c0.2,0,0.3,0.2,0.3,0.3c0,0.2-0.2,0.3-0.3,0.3
		C249.2,479.9,249.2,479.7,249.2,479.6z"/>
	<path class="st3" d="M250.3,479.6c0-0.2,0.2-0.3,0.3-0.3s0.3,0.2,0.3,0.3c0,0.2-0.2,0.3-0.3,0.3
		C250.5,479.9,250.3,479.7,250.3,479.6z"/>
	<path class="st3" d="M251.5,479.6c0-0.2,0.2-0.3,0.3-0.3c0.2,0,0.3,0.2,0.3,0.3c0,0.2-0.2,0.3-0.3,0.3
		C251.7,479.9,251.5,479.7,251.5,479.6z"/>
	<path class="st3" d="M255.3,478.1v0.3h-1.5v-0.3H255.3z"/>
	<path class="st3" d="M255.8,479.6c0-0.2,0.2-0.3,0.3-0.3c0.2,0,0.3,0.2,0.3,0.3c0,0.2-0.2,0.3-0.3,0.3
		C256,479.9,255.8,479.7,255.8,479.6z"/>
	<path class="st3" d="M256.9,479.6c0-0.2,0.2-0.3,0.3-0.3c0.2,0,0.3,0.2,0.3,0.3c0,0.2-0.2,0.3-0.3,0.3
		C257.1,479.9,256.9,479.7,256.9,479.6z"/>
	<path class="st3" d="M259.6,478.1v0.3h-1.5v-0.3H259.6z"/>
	<path class="st3" d="M260.1,479.6c0-0.2,0.2-0.3,0.3-0.3s0.3,0.2,0.3,0.3c0,0.2-0.2,0.3-0.3,0.3
		C260.1,479.9,260.1,479.7,260.1,479.6z"/>
	<path class="st3" d="M263.9,478.1v0.3h-1.5v-0.3H263.9z"/>
	<path class="st3" d="M264.2,479.6c0-0.2,0.2-0.3,0.3-0.3s0.3,0.2,0.3,0.3c0,0.2-0.2,0.3-0.3,0.3
		C264.4,479.9,264.2,479.7,264.2,479.6z"/>
	<path class="st3" d="M265.5,479.6c0-0.2,0.2-0.3,0.3-0.3c0.2,0,0.3,0.2,0.3,0.3c0,0.2-0.2,0.3-0.3,0.3S265.5,479.7,265.5,479.6z"/>
	<path class="st3" d="M268,478.1v0.3h-1.5v-0.3H268z"/>
	<path class="st3" d="M268.5,479.6c0-0.2,0.2-0.3,0.3-0.3c0.2,0,0.3,0.2,0.3,0.3c0,0.2-0.2,0.3-0.3,0.3S268.5,479.7,268.5,479.6z"/>
	<path class="st3" d="M219.3,486.5c0-0.2,0.2-0.3,0.3-0.3c0.2,0,0.3,0.2,0.3,0.3c0,0.2-0.2,0.3-0.3,0.3
		C219.5,487,219.3,486.8,219.3,486.5z"/>
	<path class="st3" d="M222,485v0.3h-1.5V485H222z"/>
	<path class="st3" d="M223.8,485v0.3h-1.5V485H223.8z"/>
	<path class="st3" d="M225.4,486.5c0-0.2,0.2-0.3,0.3-0.3c0.2,0,0.3,0.2,0.3,0.3c0,0.2-0.2,0.3-0.3,0.3
		C225.6,487,225.4,486.8,225.4,486.5z"/>
	<path class="st3" d="M227.9,485v0.3h-1.5V485H227.9z"/>
	<path class="st3" d="M229.7,485v0.3h-1.5V485H229.7z"/>
	<path class="st3" d="M231.5,486.5c0-0.2,0.2-0.3,0.3-0.3c0.2,0,0.3,0.2,0.3,0.3c0,0.2-0.2,0.3-0.3,0.3
		C231.7,487,231.5,486.8,231.5,486.5z"/>
	<path class="st3" d="M234,485v0.3h-1.5V485H234z"/>
	<path class="st3" d="M235.8,485v0.3h-1.5V485H235.8z"/>
	<path class="st3" d="M237.5,486.5c0-0.2,0.2-0.3,0.3-0.3c0.2,0,0.3,0.2,0.3,0.3c0,0.2-0.2,0.3-0.3,0.3
		C237.6,487,237.5,486.8,237.5,486.5z"/>
	<path class="st3" d="M240.1,485v0.3h-1.5V485H240.1z"/>
	<path class="st3" d="M240.6,486.5c0-0.2,0.2-0.3,0.3-0.3c0.2,0,0.3,0.2,0.3,0.3c0,0.2-0.2,0.3-0.3,0.3
		C240.8,487,240.6,486.8,240.6,486.5z"/>
	<path class="st3" d="M243.1,485v0.3h-1.5V485H243.1z"/>
	<path class="st3" d="M243.6,486.5c0-0.2,0.2-0.3,0.3-0.3c0.2,0,0.3,0.2,0.3,0.3c0,0.2-0.2,0.3-0.3,0.3
		C243.7,487,243.6,486.8,243.6,486.5z"/>
	<path class="st3" d="M246.1,485v0.3h-1.5V485H246.1z"/>
	<path class="st3" d="M249.2,485v0.3h-1.5V485H249.2z"/>
	<path class="st3" d="M249.7,486.5c0-0.2,0.2-0.3,0.3-0.3c0.2,0,0.3,0.2,0.3,0.3c0,0.2-0.2,0.3-0.3,0.3
		C249.8,487,249.7,486.8,249.7,486.5z"/>
	<path class="st3" d="M252.2,485v0.3h-1.5V485H252.2z"/>
	<path class="st3" d="M254,485v0.3h-1.5V485H254z"/>
	<path class="st3" d="M256.9,485v0.3h-1.5V485H256.9z"/>
	<path class="st3" d="M258.8,485v0.3h-1.5V485H258.8z"/>
	<path class="st3" d="M260.6,485v0.3h-1.5V485H260.6z"/>
	<path class="st3" d="M262.4,486.5c0-0.2,0.2-0.3,0.3-0.3c0.2,0,0.3,0.2,0.3,0.3c0,0.2-0.2,0.3-0.3,0.3
		C262.4,487,262.4,486.8,262.4,486.5z"/>
	<path class="st3" d="M263.5,486.5c0-0.2,0.2-0.3,0.3-0.3s0.3,0.2,0.3,0.3c0,0.2-0.2,0.3-0.3,0.3C263.7,487,263.5,486.8,263.5,486.5
		z"/>
	<path class="st3" d="M266,485v0.3h-1.5V485H266z"/>
	<path class="st3" d="M269.1,485v0.3h-1.5V485H269.1z"/>
	<path class="st3" d="M270.8,486.5c0-0.2,0.2-0.3,0.3-0.3c0.2,0,0.3,0.2,0.3,0.3c0,0.2-0.2,0.3-0.3,0.3
		C271,487,270.8,486.8,270.8,486.5z"/>
	<path class="st3" d="M272.1,486.5c0-0.2,0.2-0.3,0.3-0.3c0.2,0,0.3,0.2,0.3,0.3c0,0.2-0.2,0.3-0.3,0.3
		C272.1,487,272.1,486.8,272.1,486.5z"/>
	<path class="st3" d="M274.6,485v0.3h-1.5V485H274.6z"/>
	<path class="st3" d="M220.7,492.1v0.3h-1.5v-0.3H220.7z"/>
	<path class="st3" d="M221.2,493.6c0-0.2,0.2-0.3,0.3-0.3c0.2,0,0.3,0.2,0.3,0.3c0,0.2-0.2,0.3-0.3,0.3
		C221.3,493.9,221.2,493.7,221.2,493.6z"/>
	<path class="st3" d="M222.5,493.6c0-0.2,0.2-0.3,0.3-0.3c0.2,0,0.3,0.2,0.3,0.3c0,0.2-0.2,0.3-0.3,0.3
		C222.5,493.9,222.5,493.7,222.5,493.6z"/>
	<path class="st3" d="M223.6,493.6c0-0.2,0.2-0.3,0.3-0.3c0.2,0,0.3,0.2,0.3,0.3c0,0.2-0.2,0.3-0.3,0.3S223.6,493.7,223.6,493.6z"/>
	<path class="st3" d="M226.1,493.6c0-0.2,0.2-0.3,0.3-0.3c0.2,0,0.3,0.2,0.3,0.3c0,0.2-0.2,0.3-0.3,0.3
		C226.3,493.9,226.1,493.7,226.1,493.6z"/>
	<path class="st3" d="M228.6,493.6c0-0.2,0.2-0.3,0.3-0.3c0.2,0,0.3,0.2,0.3,0.3c0,0.2-0.2,0.3-0.3,0.3
		C228.7,493.9,228.6,493.7,228.6,493.6z"/>
	<path class="st3" d="M231.1,492.1v0.3h-1.5v-0.3H231.1z"/>
	<path class="st3" d="M231.5,493.6c0-0.2,0.2-0.3,0.3-0.3c0.2,0,0.3,0.2,0.3,0.3c0,0.2-0.2,0.3-0.3,0.3S231.5,493.7,231.5,493.6z"/>
	<path class="st3" d="M234,492.1v0.3h-1.5v-0.3H234z"/>
	<path class="st3" d="M234.5,493.6c0-0.2,0.2-0.3,0.3-0.3c0.2,0,0.3,0.2,0.3,0.3c0,0.2-0.2,0.3-0.3,0.3S234.5,493.7,234.5,493.6z"/>
	<path class="st3" d="M237.2,492.1v0.3h-1.5v-0.3H237.2z"/>
	<path class="st3" d="M240.1,492.1v0.3h-1.5v-0.3H240.1z"/>
	<path class="st3" d="M240.6,493.6c0-0.2,0.2-0.3,0.3-0.3c0.2,0,0.3,0.2,0.3,0.3c0,0.2-0.2,0.3-0.3,0.3
		C240.8,493.9,240.6,493.7,240.6,493.6z"/>
	<path class="st3" d="M243.1,492.1v0.3h-1.5v-0.3H243.1z"/>
	<path class="st3" d="M243.6,493.6c0-0.2,0.2-0.3,0.3-0.3s0.3,0.2,0.3,0.3c0,0.2-0.2,0.3-0.3,0.3S243.6,493.7,243.6,493.6z"/>
	<path class="st3" d="M247.4,492.1v0.3h-1.5v-0.3H247.4z"/>
	<path class="st3" d="M249.2,492.1v0.3h-1.5v-0.3H249.2z"/>
	<path class="st3" d="M251,492.1v0.3h-1.5v-0.3H251z"/>
	<path class="st3" d="M254,492.1v0.3h-1.3v-0.3H254z"/>
	<path class="st3" d="M255.8,492.1v0.3h-1.5v-0.3H255.8z"/>
	<path class="st3" d="M258.9,492.1v0.3h-1.5v-0.3H258.9z"/>
	<path class="st3" d="M259.4,493.6c0-0.2,0.2-0.3,0.3-0.3s0.3,0.2,0.3,0.3c0,0.2-0.2,0.3-0.3,0.3
		C259.4,493.9,259.4,493.7,259.4,493.6z"/>
	<path class="st3" d="M260.6,493.6c0-0.2,0.2-0.3,0.3-0.3c0.2,0,0.3,0.2,0.3,0.3c0,0.2-0.2,0.3-0.3,0.3
		C260.7,493.9,260.6,493.7,260.6,493.6z"/>
	<path class="st3" d="M263,492.1v0.3h-1.5v-0.3H263z"/>
	<path class="st3" d="M263.5,493.6c0-0.2,0.2-0.3,0.3-0.3s0.3,0.2,0.3,0.3c0,0.2-0.2,0.3-0.3,0.3
		C263.7,493.9,263.5,493.7,263.5,493.6z"/>
	<path class="st3" d="M266,493.6c0-0.2,0.2-0.3,0.3-0.3c0.2,0,0.3,0.2,0.3,0.3c0,0.2-0.2,0.3-0.3,0.3
		C266.2,493.9,266,493.7,266,493.6z"/>
	<path class="st3" d="M268.5,492.1v0.3H267v-0.3H268.5z"/>
	<path class="st3" d="M270.3,492.1v0.3h-1.5v-0.3H270.3z"/>
	<path class="st3" d="M272.1,493.6c0-0.2,0.2-0.3,0.3-0.3c0.2,0,0.3,0.2,0.3,0.3c0,0.2-0.2,0.3-0.3,0.3
		C272.3,493.9,272.1,493.7,272.1,493.6z"/>
	<path class="st3" d="M274.6,492.1v0.3h-1.5v-0.3H274.6z"/>
	<path class="st3" d="M220.7,499.2v0.3h-1.5v-0.3H220.7z"/>
	<path class="st3" d="M223.8,499.2v0.3h-1.5v-0.3H223.8z"/>
	<path class="st3" d="M224.3,500.7c0-0.2,0.2-0.3,0.3-0.3c0.2,0,0.3,0.2,0.3,0.3c0,0.2-0.2,0.3-0.3,0.3
		C224.5,501,224.3,500.8,224.3,500.7z"/>
	<path class="st3" d="M226.8,499.2v0.3h-1.5v-0.3H226.8z"/>
	<path class="st3" d="M227.3,500.7c0-0.2,0.2-0.3,0.3-0.3c0.2,0,0.3,0.2,0.3,0.3c0,0.2-0.2,0.3-0.3,0.3
		C227.4,501,227.3,500.8,227.3,500.7z"/>
	<path class="st3" d="M229.7,500.7c0-0.2,0.2-0.3,0.3-0.3s0.3,0.2,0.3,0.3c0,0.2-0.2,0.3-0.3,0.3C229.9,501,229.7,500.8,229.7,500.7
		z"/>
	<path class="st3" d="M230.9,500.7c0-0.2,0.2-0.3,0.3-0.3c0.2,0,0.3,0.2,0.3,0.3c0,0.2-0.2,0.3-0.3,0.3
		C231.1,501,230.9,500.8,230.9,500.7z"/>
	<path class="st3" d="M232.2,500.7c0-0.2,0.2-0.3,0.3-0.3c0.2,0,0.3,0.2,0.3,0.3c0,0.2-0.2,0.3-0.3,0.3
		C232.2,501,232.2,500.8,232.2,500.7z"/>
	<path class="st3" d="M233.4,500.7c0-0.2,0.2-0.3,0.3-0.3c0.2,0,0.3,0.2,0.3,0.3c0,0.2-0.2,0.3-0.3,0.3
		C233.5,501,233.4,500.8,233.4,500.7z"/>
	<path class="st3" d="M235.8,500.7c0-0.2,0.2-0.3,0.3-0.3c0.2,0,0.3,0.2,0.3,0.3c0,0.2-0.2,0.3-0.3,0.3
		C236,501,235.8,500.8,235.8,500.7z"/>
	<path class="st3" d="M237,500.7c0-0.2,0.2-0.3,0.3-0.3c0.2,0,0.3,0.2,0.3,0.3c0,0.2-0.2,0.3-0.3,0.3C237.2,501,237,500.8,237,500.7
		z"/>
	<path class="st3" d="M239.5,499.2v0.3H238v-0.3H239.5z"/>
	<path class="st3" d="M241.3,499.2v0.3h-1.5v-0.3H241.3z"/>
	<path class="st3" d="M241.8,500.7c0-0.2,0.2-0.3,0.3-0.3c0.2,0,0.3,0.2,0.3,0.3c0,0.2-0.2,0.3-0.3,0.3
		C241.9,501,241.8,500.8,241.8,500.7z"/>
	<path class="st3" d="M243.1,500.7c0-0.2,0.2-0.3,0.3-0.3c0.2,0,0.3,0.2,0.3,0.3c0,0.2-0.2,0.3-0.3,0.3
		C243.3,501,243.1,500.8,243.1,500.7z"/>
	<path class="st3" d="M245.6,500.7c0-0.2,0.2-0.3,0.3-0.3c0.2,0,0.3,0.2,0.3,0.3c0,0.2-0.2,0.3-0.3,0.3
		C245.6,501,245.6,500.8,245.6,500.7z"/>
	<path class="st3" d="M246.7,500.7c0-0.2,0.2-0.3,0.3-0.3c0.2,0,0.3,0.2,0.3,0.3c0,0.2-0.2,0.3-0.3,0.3
		C246.9,501,246.7,500.8,246.7,500.7z"/>
	<path class="st3" d="M247.9,500.7c0-0.2,0.2-0.3,0.3-0.3c0.2,0,0.3,0.2,0.3,0.3c0,0.2-0.2,0.3-0.3,0.3
		C248,501,247.9,500.8,247.9,500.7z"/>
	<path class="st3" d="M250.5,499.2v0.3H249v-0.3H250.5z"/>
	<path class="st3" d="M253.5,499.2v0.3H252v-0.3H253.5z"/>
	<path class="st3" d="M254,500.7c0-0.2,0.2-0.3,0.3-0.3c0.2,0,0.3,0.2,0.3,0.3c0,0.2-0.2,0.3-0.3,0.3C254.1,501,254,500.8,254,500.7
		z"/>
	<path class="st3" d="M255.1,500.7c0-0.2,0.2-0.3,0.3-0.3c0.2,0,0.3,0.2,0.3,0.3c0,0.2-0.2,0.3-0.3,0.3S255.1,500.8,255.1,500.7z"/>
	<path class="st3" d="M257.6,500.7c0-0.2,0.2-0.3,0.3-0.3s0.3,0.2,0.3,0.3c0,0.2-0.2,0.3-0.3,0.3C257.8,501,257.6,500.8,257.6,500.7
		z"/>
	<path class="st3" d="M258.9,500.7c0-0.2,0.2-0.3,0.3-0.3c0.2,0,0.3,0.2,0.3,0.3c0,0.2-0.2,0.3-0.3,0.3
		C258.9,501,258.9,500.8,258.9,500.7z"/>
	<path class="st3" d="M260.1,500.7c0-0.2,0.2-0.3,0.3-0.3c0.2,0,0.3,0.2,0.3,0.3c0,0.2-0.2,0.3-0.3,0.3S260.1,500.8,260.1,500.7z"/>
	<path class="st3" d="M262.5,499.2v0.3h-1.5v-0.3H262.5z"/>
	<path class="st3" d="M265.7,499.2v0.3h-1.5v-0.3H265.7z"/>
	<path class="st3" d="M266.2,500.7c0-0.2,0.2-0.3,0.3-0.3c0.2,0,0.3,0.2,0.3,0.3c0,0.2-0.2,0.3-0.3,0.3
		C266.2,501,266.2,500.8,266.2,500.7z"/>
	<path class="st3" d="M268.6,499.2v0.3h-1.5v-0.3H268.6z"/>
	<path class="st3" d="M270.5,499.2v0.3H269v-0.3H270.5z"/>
	<path class="st3" d="M219.3,507.6c0-0.2,0.2-0.3,0.3-0.3c0.2,0,0.3,0.2,0.3,0.3c0,0.2-0.2,0.3-0.3,0.3
		C219.5,507.9,219.3,507.9,219.3,507.6z"/>
	<path class="st3" d="M222,506.1v0.3h-1.5v-0.3H222z"/>
	<path class="st3" d="M223.8,506.1v0.3h-1.5v-0.3H223.8z"/>
	<path class="st3" d="M226.8,506.1v0.3h-1.5v-0.3H226.8z"/>
	<path class="st3" d="M228.6,506.1v0.3h-1.5v-0.3H228.6z"/>
	<path class="st3" d="M230.4,506.1v0.3h-1.5v-0.3H230.4z"/>
	<path class="st3" d="M232,507.6c0-0.2,0.2-0.3,0.3-0.3c0.2,0,0.3,0.2,0.3,0.3c0,0.2-0.2,0.3-0.3,0.3
		C232.2,507.9,232,507.9,232,507.6z"/>
	<path class="st3" d="M234.7,506.1v0.3h-1.5v-0.3H234.7z"/>
	<path class="st3" d="M236.5,506.1v0.3H235v-0.3H236.5z"/>
	<path class="st3" d="M238.1,506.1v0.3h-1.5v-0.3H238.1z"/>
	<path class="st3" d="M240,507.6c0-0.2,0.2-0.3,0.3-0.3c0.2,0,0.3,0.2,0.3,0.3c0,0.2-0.2,0.3-0.3,0.3
		C240.1,507.9,240,507.9,240,507.6z"/>
	<path class="st3" d="M241.1,507.6c0-0.2,0.2-0.3,0.3-0.3c0.2,0,0.3,0.2,0.3,0.3c0,0.2-0.2,0.3-0.3,0.3
		C241.3,507.9,241.1,507.9,241.1,507.6z"/>
	<path class="st3" d="M242.4,507.6c0-0.2,0.2-0.3,0.3-0.3c0.2,0,0.3,0.2,0.3,0.3c0,0.2-0.2,0.3-0.3,0.3
		C242.4,507.9,242.4,507.9,242.4,507.6z"/>
	<path class="st3" d="M243.6,507.6c0-0.2,0.2-0.3,0.3-0.3c0.2,0,0.3,0.2,0.3,0.3c0,0.2-0.2,0.3-0.3,0.3S243.6,507.9,243.6,507.6z"/>
	<path class="st3" d="M246.1,507.6c0-0.2,0.2-0.3,0.3-0.3c0.2,0,0.3,0.2,0.3,0.3c0,0.2-0.2,0.3-0.3,0.3
		C246.2,507.9,246.1,507.9,246.1,507.6z"/>
	<path class="st3" d="M247.2,507.6c0-0.2,0.2-0.3,0.3-0.3c0.2,0,0.3,0.2,0.3,0.3c0,0.2-0.2,0.3-0.3,0.3
		C247.4,507.9,247.2,507.9,247.2,507.6z"/>
	<path class="st3" d="M249.8,506.1v0.3h-1.5v-0.3H249.8z"/>
	<path class="st3" d="M251.5,506.1v0.3H250v-0.3H251.5z"/>
	<path class="st3" d="M252,507.6c0-0.2,0.2-0.3,0.3-0.3c0.2,0,0.3,0.2,0.3,0.3c0,0.2-0.2,0.3-0.3,0.3
		C252.2,507.9,252,507.9,252,507.6z"/>
	<path class="st3" d="M254.6,506.1v0.3h-1.5v-0.3H254.6z"/>
	<path class="st3" d="M256.3,507.6c0-0.2,0.2-0.3,0.3-0.3c0.2,0,0.3,0.2,0.3,0.3c0,0.2-0.2,0.3-0.3,0.3S256.3,507.9,256.3,507.6z"/>
	<path class="st3" d="M257.6,507.6c0-0.2,0.2-0.3,0.3-0.3s0.3,0.2,0.3,0.3c0,0.2-0.2,0.3-0.3,0.3
		C257.6,507.9,257.6,507.9,257.6,507.6z"/>
	<path class="st3" d="M258.8,507.6c0-0.2,0.2-0.3,0.3-0.3c0.2,0,0.3,0.2,0.3,0.3c0,0.2-0.2,0.3-0.3,0.3
		C258.9,507.9,258.8,507.9,258.8,507.6z"/>
	<path class="st3" d="M259.9,507.6c0-0.2,0.2-0.3,0.3-0.3s0.3,0.2,0.3,0.3c0,0.2-0.2,0.3-0.3,0.3S259.9,507.9,259.9,507.6z"/>
	<path class="st3" d="M263.7,506.1v0.3h-1.5v-0.3H263.7z"/>
	<path class="st3" d="M264.2,507.6c0-0.2,0.2-0.3,0.3-0.3s0.3,0.2,0.3,0.3c0,0.2-0.2,0.3-0.3,0.3
		C264.4,507.9,264.2,507.9,264.2,507.6z"/>
	<path class="st3" d="M265.3,507.6c0-0.2,0.2-0.3,0.3-0.3c0.2,0,0.3,0.2,0.3,0.3c0,0.2-0.2,0.3-0.3,0.3S265.3,507.9,265.3,507.6z"/>
	<path class="st3" d="M269.1,506.1v0.3h-1.5v-0.3H269.1z"/>
	<path class="st3" d="M269.6,507.6c0-0.2,0.2-0.3,0.3-0.3s0.3,0.2,0.3,0.3c0,0.2-0.2,0.3-0.3,0.3
		C269.8,507.9,269.6,507.9,269.6,507.6z"/>
	<path class="st3" d="M272.1,506.1v0.3h-1.3v-0.3H272.1z"/>
	<path class="st3" d="M273.9,506.1v0.3h-1.5v-0.3H273.9z"/>
</g>
</svg>
