<?xml version="1.0" encoding="utf-8"?>
<!-- Generator: Adobe Illustrator 24.2.0, SVG Export Plug-In . SVG Version: 6.00 Build 0)  -->
<svg version="1.1" id="Layer_1" xmlns="http://www.w3.org/2000/svg" xmlns:xlink="http://www.w3.org/1999/xlink" x="0px" y="0px"
	 viewBox="0 0 600 700" style="enable-background:new 0 0 600 700;" xml:space="preserve">
<style type="text/css">
	.st0{opacity:0.2;fill:#FFFFFF;enable-background:new    ;}
	.st1{fill:#CE5C6D;}
	.st2{opacity:0.2;enable-background:new    ;}
	.st3{fill:#FFFFFF;}
</style>
<g>
	<polygon id="piece-iii_1_" class="st0" points="1217.6,2049.2 1217.8,2048.8 1217.7,2048.6 1217.8,2048.6 1273.4,1930.2 
		1161.8,1880.1 1088.8,2033.1 1100.2,2064.3 1168.6,2121.9 1228.6,2078.4 1217.9,2049.4 	"/>
	<polygon id="piece-v" class="st0" points="1497.8,1452.7 1324.5,1185.7 1262.2,1144.9 860.5,883.4 635.2,1242.2 610.8,1475.5 
		880.5,1731 1282.3,1911.2 	"/>
	<path id="piece-i" class="st0" d="M1112.8,2102.6l-152.1,90.1c0,0-0.6,32.4,15.1,32.4c15.7,0,50.7,0,50.7,0l124.6-90.3
		L1112.8,2102.6z"/>
	<polygon id="piece-iv" class="st0" points="1748.8,1839.7 1511.2,1473.4 1240.3,2049.8 1251.2,2079.8 1549.8,2331.9 1759.4,2257.7 
		1815.8,2049.4 	"/>
	<path id="piece-ii" class="st0" d="M969.4,2292.1l1.6,4.5c0,0,4.1,40.7,18.8,41.2c14.8,0.5,535,0.5,535,0.5l-286-241.6
		L969.4,2292.1z"/>
	<polyline class="st0" points="604,526.1 476,607.1 382.4,928.8 386,1044.6 623,710.8 639.5,409.9 	"/>
	<polygon class="st1" points="546.3,211.2 22.7,408 23,408.9 416.8,487 	"/>
	<g class="st2">
		<g>
			<polygon class="st3" points="519.2,2307.9 671.1,1561.5 667.1,1557.6 589.5,1484.2 590.5,1483.2 589,1483 615,1235.3 
				614.8,1235.2 848.8,862.7 657,409.9 643.5,717.9 643.3,717.9 643.5,717.9 387.1,1079.2 387.5,1089.1 480.2,1458.6 480.2,2222.9 
							"/>
			<polygon class="st3" points="583.3,2225 744,1630.5 689.2,1578.6 557.6,2225 			"/>
		</g>
		<path class="st3" d="M510.1,2338.3L464,2238l-96.6,76.5c0,0-1.6,23.8,11,23.8C390.8,2338.3,510.1,2338.3,510.1,2338.3z"/>
	</g>
	<path id="piece-x" class="st0" d="M586.1,512.4c0,0,61.9-202,71.2-234.9s-85.8-69.6-85.8-69.6l-137.2,291l-10.8,32.2l47.7,54.2
		L586.1,512.4z"/>
</g>
<g>
	<g>
		<g>
			<path class="st3" d="M228.5,277.7v-26.9c0-9-3.8-13.2-9.4-13.2c-6.1,0-9.7,4.2-9.7,13.2v26.9H201v-26.3
				c0-14.2,7.3-20.5,18.4-20.5c10.7,0,17.6,5.9,17.6,20.4v26.4H228.5z"/>
		</g>
	</g>
	<g>
		<g>
			<path class="st3" d="M249,233.8v16.5h-3v-16.5H249z"/>
			<path class="st3" d="M250.2,251.5h-5.5v-18.9h5.5V251.5z M247.2,249.1h0.6v-14h-0.6V249.1z"/>
		</g>
	</g>
	<g>
		<g>
			<path class="st3" d="M260,233.8v16.5h-3v-16.5H260z"/>
			<path class="st3" d="M261.2,251.5h-5.5v-18.9h5.5V251.5z M258.2,249.1h0.6v-14h-0.6V249.1z"/>
		</g>
	</g>
	<g>
		<g>
			<path class="st3" d="M271,233.8v16.5h-3v-16.5H271z"/>
			<path class="st3" d="M272.2,251.5h-5.5v-18.9h5.5V251.5z M269.2,249.1h0.6v-14h-0.6V249.1z"/>
		</g>
	</g>
	<g>
		<g>
			<path class="st3" d="M282,233.8v16.5h-3v-16.5H282z"/>
			<path class="st3" d="M283.2,251.5h-5.5v-18.9h5.5V251.5z M280.2,249.1h0.6v-14h-0.6V249.1z"/>
		</g>
	</g>
	<g>
		<g>
			<path class="st3" d="M254.5,259.3v16.5h-3v-16.5H254.5z"/>
			<path class="st3" d="M255.7,277h-5.5v-18.9h5.5V277z M252.7,274.6h0.6v-14h-0.6V274.6z"/>
		</g>
	</g>
	<g>
		<g>
			<path class="st3" d="M265.5,259.3v16.5h-3v-16.5H265.5z"/>
			<path class="st3" d="M266.7,277h-5.5v-18.9h5.5V277z M263.7,274.6h0.6v-14h-0.6V274.6z"/>
		</g>
	</g>
	<g>
		<g>
			<path class="st3" d="M276.5,259.3v16.5h-3v-16.5H276.5z"/>
			<path class="st3" d="M277.7,277h-5.5v-18.9h5.5V277z M274.7,274.6h0.6v-14h-0.6V274.6z"/>
		</g>
	</g>
</g>
<g>
	<g>
		<g>
			<path class="st3" d="M524.6,391.3v16.5h-3v-16.5H524.6z"/>
			<path class="st3" d="M525.8,409h-5.5v-18.9h5.5V409z M522.8,406.6h0.6v-14h-0.6V406.6z"/>
		</g>
	</g>
	<g>
		<g>
			<path class="st3" d="M535.6,391.3v16.5h-3v-16.5H535.6z"/>
			<path class="st3" d="M536.8,409h-5.5v-18.9h5.5V409z M533.8,406.6h0.6v-14h-0.6V406.6z"/>
		</g>
	</g>
	<g>
		<g>
			<path class="st3" d="M546.6,391.3v16.5h-3v-16.5H546.6z"/>
			<path class="st3" d="M547.8,409h-5.5v-18.9h5.5V409z M544.8,406.6h0.6v-14h-0.6V406.6z"/>
		</g>
	</g>
	<g>
		<g>
			<path class="st3" d="M524.6,367.9v16.5h-3v-16.5H524.6z"/>
			<path class="st3" d="M525.8,385.6h-5.5v-18.9h5.5V385.6z M522.8,383.2h0.6v-14h-0.6V383.2z"/>
		</g>
	</g>
	<g>
		<g>
			<path class="st3" d="M535.6,367.9v16.5h-3v-16.5H535.6z"/>
			<path class="st3" d="M536.8,385.6h-5.5v-18.9h5.5V385.6z M533.8,383.2h0.6v-14h-0.6V383.2z"/>
		</g>
	</g>
	<g>
		<g>
			<path class="st3" d="M546.6,367.9v16.5h-3v-16.5H546.6z"/>
			<path class="st3" d="M547.8,385.6h-5.5v-18.9h5.5V385.6z M544.8,383.2h0.6v-14h-0.6V383.2z"/>
		</g>
	</g>
	<g>
		<g>
			<path class="st3" d="M524.6,344.5V361h-3v-16.5H524.6z"/>
			<path class="st3" d="M525.8,362.2h-5.5v-18.9h5.5V362.2z M522.8,359.8h0.6v-14h-0.6V359.8z"/>
		</g>
	</g>
	<g>
		<g>
			<path class="st3" d="M535.6,344.5V361h-3v-16.5H535.6z"/>
			<path class="st3" d="M536.8,362.2h-5.5v-18.9h5.5V362.2z M533.8,359.8h0.6v-14h-0.6V359.8z"/>
		</g>
	</g>
	<g>
		<g>
			<path class="st3" d="M546.6,344.5V361h-3v-16.5H546.6z"/>
			<path class="st3" d="M547.8,362.2h-5.5v-18.9h5.5V362.2z M544.8,359.8h0.6v-14h-0.6V359.8z"/>
		</g>
	</g>
</g>
<g>
	<g>
		<path class="st3" d="M272.1,530.3v-26.9c0-9-3.8-13.2-9.4-13.2c-6.1,0-9.7,4.2-9.7,13.2v26.9h-8.4V504c0-14.2,7.3-20.5,18.4-20.5
			c10.7,0,17.6,5.9,17.6,20.4v26.4H272.1z"/>
	</g>
</g>
<g>
	<path class="st3" d="M337.8,388.3l-0.1-1.6c-0.3-3.3,0.8-6.7,3.8-10.3c2.4-2.8,3.9-5,3.9-7.4c0-2.6-1.6-4.4-5.1-4.4
		c-2.2,0-4.7,0.7-6.3,1.9l-1.9-5.5c2.3-1.4,5.9-2.6,9.8-2.6c7.8,0,11.3,4.5,11.3,9.5c0,4.5-2.8,7.6-5.4,10.7
		c-2.4,2.9-3.4,5.4-3.3,8.4l0.1,1.3H337.8z M336.2,397c0-2.9,2-4.9,4.8-4.9c2.8,0,4.7,2,4.8,4.9c0,2.8-1.9,4.9-4.8,4.9
		C338.1,401.9,336.2,399.7,336.2,397z"/>
</g>
</svg>
