<?xml version="1.0" encoding="utf-8"?>
<!-- Generator: Adobe Illustrator 24.2.0, SVG Export Plug-In . SVG Version: 6.00 Build 0)  -->
<svg version="1.1" id="Layer_1" xmlns="http://www.w3.org/2000/svg" xmlns:xlink="http://www.w3.org/1999/xlink" x="0px" y="0px"
	 viewBox="0 0 600 700" style="enable-background:new 0 0 600 700;" xml:space="preserve">
<style type="text/css">
	.st0{opacity:0.2;fill:#FFFFFF;enable-background:new    ;}
	.st1{fill:#CE5C6D;}
	.st2{opacity:0.2;}
	.st3{fill:#FFFFFF;}
</style>
<g>
	<polygon id="piece-iii_1_" class="st0" points="277.6,206.9 277.8,206.5 277.7,206.4 277.9,206.4 330.9,93.5 224.5,45.8 
		154.9,191.6 165.7,221.3 230.9,276.2 288.1,234.8 278,207.1 	"/>
	<polygon id="piece-v" class="st0" points="544.7,-361.5 379.6,-616 320.1,-654.9 -62.6,-904 -277.3,-562.1 -300.6,-339.8 
		-43.6,-96.3 339.3,75.5 	"/>
	<path id="piece-i" class="st0" d="M177.8,257.8l-145,85.8c0,0-0.6,30.8,14.4,30.8s48.3,0,48.3,0l118.7-86.1L177.8,257.8z"/>
	<polygon id="piece-iv" class="st0" points="783.8,7.3 557.4,-341.8 299.3,207.5 309.7,236.1 594.2,476.4 794,405.6 847.8,207.1 	
		"/>
	<path id="piece-ii" class="st1" d="M41.2,438.4l1.5,4.3c0,0,3.9,38.8,17.9,39.3s509.8,0.5,509.8,0.5L297.9,252.2L41.2,438.4z"/>
	<polyline class="st0" points="-307,-1244.5 -429,-1167.3 -518.3,-860.8 -514.8,-750.4 -289,-1068.5 -273.3,-1355.2 	"/>
	<polygon class="st0" points="-362,-1544.6 -824.8,-1432.3 -860.6,-1356.1 -485.5,-1281.7 	"/>
	<path class="st0" d="M-875.5-1420c-16.6,4.3,0,48.7,0,48.7l25.8-55C-849.7-1426.3-858.9-1424.3-875.5-1420z"/>
	<g class="st2">
		<g>
			<polygon class="st3" points="-387.8,453.4 -243,-257.8 -246.9,-261.5 -320.8,-331.5 -319.9,-332.5 -321.3,-332.6 -296.7,-568.7 
				-296.7,-568.7 -73.8,-923.8 -256.6,-1355.2 -269.4,-1061.7 -269.5,-1061.7 -269.4,-1061.7 -513.7,-717.4 -513.5,-707.9 
				-425,-355.9 -425,372.4 			"/>
			<polygon class="st3" points="-326.7,374.5 -173.6,-192 -225.8,-241.5 -351.2,374.5 			"/>
		</g>
		<path class="st3" d="M-396.6,482.4l-44-95.6l-92.1,72.9c0,0-1.5,22.7,10.5,22.7S-396.6,482.4-396.6,482.4z"/>
	</g>
	<path id="piece-x" class="st0" d="M-324.1-1257.6c0,0,58.9-192.5,67.8-223.8c8.9-31.4-81.8-66.3-81.8-66.3l-130.7,277.3l-10.3,30.7
		l45.4,51.7L-324.1-1257.6z"/>
</g>
<g>
	<path class="st3" d="M298.8,282.2h-3.5v-6.8c0-0.8,0-1.6,0.1-2.3c-0.2,0.3-0.5,0.5-0.8,0.8l-1.5,1.2l-1.8-2.2l4.4-3.6h3.1V282.2z"
		/>
	<path class="st3" d="M281.8,308.2h-3.5v-6.8c0-0.8,0-1.6,0.1-2.3c-0.2,0.3-0.5,0.5-0.8,0.8l-1.5,1.2l-1.8-2.2l4.4-3.6h3.1V308.2z"
		/>
	<path class="st3" d="M315.8,308.2h-3.5v-6.8c0-0.8,0-1.6,0.1-2.3c-0.2,0.3-0.5,0.5-0.8,0.8l-1.5,1.2l-1.8-2.2l4.4-3.6h3.1V308.2z"
		/>
	<path class="st3" d="M283.4,334.2h-9.3v-2.3l3.1-3.2c0.9-0.9,1.5-1.6,1.8-1.9c0.3-0.3,0.5-0.6,0.6-0.9s0.2-0.5,0.2-0.8
		c0-0.3-0.1-0.6-0.3-0.8s-0.5-0.3-0.9-0.3c-0.4,0-0.8,0.1-1.2,0.3c-0.4,0.2-0.9,0.6-1.4,1l-1.9-2.2c0.7-0.6,1.2-1,1.7-1.3
		c0.5-0.3,0.9-0.4,1.5-0.6s1.1-0.2,1.8-0.2c0.8,0,1.6,0.1,2.2,0.4s1.2,0.7,1.5,1.3s0.5,1.1,0.5,1.8c0,0.5-0.1,1-0.2,1.4
		s-0.3,0.8-0.6,1.3c-0.3,0.4-0.6,0.8-1.1,1.3s-1.4,1.3-2.8,2.6v0.1h4.9V334.2z"/>
	<path class="st3" d="M315.8,334.2h-3.5v-6.8c0-0.8,0-1.6,0.1-2.3c-0.2,0.3-0.5,0.5-0.8,0.8l-1.5,1.2l-1.8-2.2l4.4-3.6h3.1V334.2z"
		/>
	<path class="st3" d="M247.9,360.2h-3.5v-6.8c0-0.8,0-1.6,0.1-2.3c-0.2,0.3-0.5,0.5-0.8,0.8l-1.5,1.2l-1.8-2.2l4.4-3.6h3.1V360.2z"
		/>
	<path class="st3" d="M283.4,360.2h-9.3v-2.3l3.1-3.2c0.9-0.9,1.5-1.6,1.8-1.9c0.3-0.3,0.5-0.6,0.6-0.9s0.2-0.5,0.2-0.8
		c0-0.3-0.1-0.6-0.3-0.8s-0.5-0.3-0.9-0.3c-0.4,0-0.8,0.1-1.2,0.3c-0.4,0.2-0.9,0.6-1.4,1l-1.9-2.2c0.7-0.6,1.2-1,1.7-1.3
		c0.5-0.3,0.9-0.4,1.5-0.6s1.1-0.2,1.8-0.2c0.8,0,1.6,0.1,2.2,0.4s1.2,0.7,1.5,1.3s0.5,1.1,0.5,1.8c0,0.5-0.1,1-0.2,1.4
		s-0.3,0.8-0.6,1.3c-0.3,0.4-0.6,0.8-1.1,1.3s-1.4,1.3-2.8,2.6v0.1h4.9V360.2z"/>
	<path class="st3" d="M315.8,360.2h-3.5v-6.8c0-0.8,0-1.6,0.1-2.3c-0.2,0.3-0.5,0.5-0.8,0.8l-1.5,1.2l-1.8-2.2l4.4-3.6h3.1V360.2z"
		/>
	<path class="st3" d="M349.7,360.2h-3.5v-6.8c0-0.8,0-1.6,0.1-2.3c-0.2,0.3-0.5,0.5-0.8,0.8l-1.5,1.2l-1.8-2.2l4.4-3.6h3.1V360.2z"
		/>
	<path class="st3" d="M214,386.2h-3.5v-6.8c0-0.8,0-1.6,0.1-2.3c-0.2,0.3-0.5,0.5-0.8,0.8l-1.5,1.2l-1.8-2.2l4.4-3.6h3.1V386.2z"/>
	<path class="st3" d="M247.9,386.2h-3.5v-6.8c0-0.8,0-1.6,0.1-2.3c-0.2,0.3-0.5,0.5-0.8,0.8l-1.5,1.2l-1.8-2.2l4.4-3.6h3.1V386.2z"
		/>
	<path class="st3" d="M281.8,386.2h-3.5v-6.8c0-0.8,0-1.6,0.1-2.3c-0.2,0.3-0.5,0.5-0.8,0.8l-1.5,1.2l-1.8-2.2l4.4-3.6h3.1V386.2z"
		/>
	<path class="st3" d="M317.4,386.2H308v-2.3l3.1-3.2c0.9-0.9,1.5-1.6,1.8-1.9c0.3-0.3,0.5-0.6,0.6-0.9s0.2-0.5,0.2-0.8
		c0-0.3-0.1-0.6-0.3-0.8s-0.5-0.3-0.9-0.3c-0.4,0-0.8,0.1-1.2,0.3c-0.4,0.2-0.9,0.6-1.4,1l-1.9-2.2c0.7-0.6,1.2-1,1.7-1.3
		c0.5-0.3,0.9-0.4,1.5-0.6s1.1-0.2,1.8-0.2c0.8,0,1.6,0.1,2.2,0.4s1.2,0.7,1.5,1.3s0.5,1.1,0.5,1.8c0,0.5-0.1,1-0.2,1.4
		s-0.3,0.8-0.6,1.3c-0.3,0.4-0.6,0.8-1,1.3s-1.4,1.3-2.8,2.6v0.1h4.9V386.2z"/>
	<path class="st3" d="M351.3,386.2H342v-2.3l3.1-3.2c0.9-0.9,1.5-1.6,1.8-1.9c0.3-0.3,0.5-0.6,0.6-0.9s0.2-0.5,0.2-0.8
		c0-0.3-0.1-0.6-0.3-0.8s-0.5-0.3-0.9-0.3c-0.4,0-0.8,0.1-1.2,0.3c-0.4,0.2-0.9,0.6-1.4,1l-1.9-2.2c0.7-0.6,1.2-1,1.7-1.3
		c0.5-0.3,0.9-0.4,1.5-0.6s1.1-0.2,1.8-0.2c0.8,0,1.6,0.1,2.2,0.4s1.2,0.7,1.5,1.3s0.5,1.1,0.5,1.8c0,0.5-0.1,1-0.2,1.4
		s-0.3,0.8-0.6,1.3c-0.3,0.4-0.6,0.8-1,1.3s-1.4,1.3-2.8,2.6v0.1h4.9V386.2z"/>
	<path class="st3" d="M383.6,386.2h-3.5v-6.8c0-0.8,0-1.6,0.1-2.3c-0.2,0.3-0.5,0.5-0.8,0.8l-1.5,1.2l-1.8-2.2l4.4-3.6h3.1V386.2z"
		/>
	<path class="st3" d="M215.1,402.1c0,0.8-0.2,1.5-0.7,2.1c-0.5,0.6-1.2,1-2.1,1.2v0.1c2.1,0.3,3.2,1.3,3.2,3c0,1.2-0.5,2.1-1.4,2.8
		s-2.3,1-3.9,1c-0.7,0-1.3,0-1.9-0.1s-1.2-0.3-1.9-0.5v-2.9c0.6,0.3,1.1,0.5,1.7,0.6s1.1,0.2,1.6,0.2c0.8,0,1.3-0.1,1.7-0.3
		c0.3-0.2,0.5-0.5,0.5-1c0-0.4-0.1-0.6-0.3-0.8s-0.5-0.3-0.9-0.4c-0.4-0.1-0.9-0.1-1.6-0.1h-0.8v-2.6h0.8c1.8,0,2.6-0.5,2.6-1.4
		c0-0.3-0.1-0.6-0.4-0.8s-0.6-0.2-1.1-0.2c-0.8,0-1.7,0.3-2.5,0.8l-1.4-2.3c0.7-0.5,1.4-0.8,2.1-1s1.5-0.3,2.4-0.3
		c1.3,0,2.4,0.3,3.1,0.8S215.1,401.2,215.1,402.1z"/>
	<path class="st3" d="M247.9,412.2h-3.5v-6.8c0-0.8,0-1.6,0.1-2.3c-0.2,0.3-0.5,0.5-0.8,0.8l-1.5,1.2l-1.8-2.2l4.4-3.6h3.1V412.2z"
		/>
	<path class="st3" d="M283.4,412.2h-9.3v-2.3l3.1-3.2c0.9-0.9,1.5-1.6,1.8-1.9c0.3-0.3,0.5-0.6,0.6-0.9s0.2-0.5,0.2-0.8
		c0-0.3-0.1-0.6-0.3-0.8s-0.5-0.3-0.9-0.3c-0.4,0-0.8,0.1-1.2,0.3c-0.4,0.2-0.9,0.6-1.4,1l-1.9-2.2c0.7-0.6,1.2-1,1.7-1.3
		c0.5-0.3,0.9-0.4,1.5-0.6s1.1-0.2,1.8-0.2c0.8,0,1.6,0.1,2.2,0.4s1.2,0.7,1.5,1.3s0.5,1.1,0.5,1.8c0,0.5-0.1,1-0.2,1.4
		s-0.3,0.8-0.6,1.3c-0.3,0.4-0.6,0.8-1.1,1.3s-1.4,1.3-2.8,2.6v0.1h4.9V412.2z"/>
	<path class="st3" d="M317.4,412.2H308v-2.3l3.1-3.2c0.9-0.9,1.5-1.6,1.8-1.9c0.3-0.3,0.5-0.6,0.6-0.9s0.2-0.5,0.2-0.8
		c0-0.3-0.1-0.6-0.3-0.8s-0.5-0.3-0.9-0.3c-0.4,0-0.8,0.1-1.2,0.3c-0.4,0.2-0.9,0.6-1.4,1l-1.9-2.2c0.7-0.6,1.2-1,1.7-1.3
		c0.5-0.3,0.9-0.4,1.5-0.6s1.1-0.2,1.8-0.2c0.8,0,1.6,0.1,2.2,0.4s1.2,0.7,1.5,1.3s0.5,1.1,0.5,1.8c0,0.5-0.1,1-0.2,1.4
		s-0.3,0.8-0.6,1.3c-0.3,0.4-0.6,0.8-1,1.3s-1.4,1.3-2.8,2.6v0.1h4.9V412.2z"/>
	<path class="st3" d="M349.7,412.2h-3.5v-6.8c0-0.8,0-1.6,0.1-2.3c-0.2,0.3-0.5,0.5-0.8,0.8l-1.5,1.2l-1.8-2.2l4.4-3.6h3.1V412.2z"
		/>
	<path class="st3" d="M383.6,412.2h-3.5v-6.8c0-0.8,0-1.6,0.1-2.3c-0.2,0.3-0.5,0.5-0.8,0.8l-1.5,1.2l-1.8-2.2l4.4-3.6h3.1V412.2z"
		/>
	<path class="st3" d="M146.1,438.2h-3.5v-6.8c0-0.8,0-1.6,0.1-2.3c-0.2,0.3-0.5,0.5-0.8,0.8l-1.5,1.2l-1.8-2.2l4.4-3.6h3.1V438.2z"
		/>
	<path class="st3" d="M180.1,438.2h-3.5v-6.8c0-0.8,0-1.6,0.1-2.3c-0.2,0.3-0.5,0.5-0.8,0.8l-1.5,1.2l-1.8-2.2l4.4-3.6h3.1V438.2z"
		/>
	<path class="st3" d="M214,438.2h-3.5v-6.8c0-0.8,0-1.6,0.1-2.3c-0.2,0.3-0.5,0.5-0.8,0.8l-1.5,1.2l-1.8-2.2l4.4-3.6h3.1V438.2z"/>
	<path class="st3" d="M249.1,428.1c0,0.8-0.2,1.5-0.7,2.1c-0.5,0.6-1.2,1-2.1,1.2v0.1c2.1,0.3,3.2,1.3,3.2,3c0,1.2-0.5,2.1-1.4,2.8
		s-2.3,1-3.9,1c-0.7,0-1.3,0-1.9-0.1s-1.2-0.3-1.9-0.5v-2.9c0.6,0.3,1.1,0.5,1.7,0.6s1.1,0.2,1.6,0.2c0.8,0,1.3-0.1,1.7-0.3
		c0.3-0.2,0.5-0.5,0.5-1c0-0.4-0.1-0.6-0.3-0.8s-0.5-0.3-0.9-0.4c-0.4-0.1-0.9-0.1-1.6-0.1h-0.8v-2.6h0.8c1.8,0,2.6-0.5,2.6-1.4
		c0-0.3-0.1-0.6-0.4-0.8s-0.6-0.2-1.1-0.2c-0.8,0-1.7,0.3-2.5,0.8l-1.4-2.3c0.7-0.5,1.4-0.8,2.1-1s1.5-0.3,2.4-0.3
		c1.3,0,2.4,0.3,3.1,0.8S249.1,427.2,249.1,428.1z"/>
	<path class="st3" d="M283.4,438.2h-9.3v-2.3l3.1-3.2c0.9-0.9,1.5-1.6,1.8-1.9c0.3-0.3,0.5-0.6,0.6-0.9s0.2-0.5,0.2-0.8
		c0-0.3-0.1-0.6-0.3-0.8s-0.5-0.3-0.9-0.3c-0.4,0-0.8,0.1-1.2,0.3c-0.4,0.2-0.9,0.6-1.4,1l-1.9-2.2c0.7-0.6,1.2-1,1.7-1.3
		c0.5-0.3,0.9-0.4,1.5-0.6s1.1-0.2,1.8-0.2c0.8,0,1.6,0.1,2.2,0.4s1.2,0.7,1.5,1.3s0.5,1.1,0.5,1.8c0,0.5-0.1,1-0.2,1.4
		s-0.3,0.8-0.6,1.3c-0.3,0.4-0.6,0.8-1.1,1.3s-1.4,1.3-2.8,2.6v0.1h4.9V438.2z"/>
	<path class="st3" d="M315.8,438.2h-3.5v-6.8c0-0.8,0-1.6,0.1-2.3c-0.2,0.3-0.5,0.5-0.8,0.8l-1.5,1.2l-1.8-2.2l4.4-3.6h3.1V438.2z"
		/>
	<path class="st3" d="M350.8,428.1c0,0.8-0.2,1.5-0.7,2.1c-0.5,0.6-1.2,1-2.1,1.2v0.1c2.1,0.3,3.2,1.3,3.2,3c0,1.2-0.5,2.1-1.4,2.8
		s-2.3,1-3.9,1c-0.7,0-1.3,0-1.9-0.1s-1.2-0.3-1.9-0.5v-2.9c0.6,0.3,1.1,0.5,1.7,0.6s1.1,0.2,1.6,0.2c0.8,0,1.3-0.1,1.7-0.3
		c0.3-0.2,0.5-0.5,0.5-1c0-0.4-0.1-0.6-0.3-0.8s-0.5-0.3-0.9-0.4c-0.4-0.1-0.9-0.1-1.6-0.1H344v-2.6h0.8c1.8,0,2.6-0.5,2.6-1.4
		c0-0.3-0.1-0.6-0.4-0.8s-0.6-0.2-1.1-0.2c-0.8,0-1.7,0.3-2.5,0.8l-1.4-2.3c0.7-0.5,1.4-0.8,2.1-1s1.5-0.3,2.4-0.3
		c1.3,0,2.4,0.3,3.1,0.8S350.8,427.2,350.8,428.1z"/>
	<path class="st3" d="M385.2,438.2h-9.3v-2.3l3.1-3.2c0.9-0.9,1.5-1.6,1.8-1.9c0.3-0.3,0.5-0.6,0.6-0.9s0.2-0.5,0.2-0.8
		c0-0.3-0.1-0.6-0.3-0.8s-0.5-0.3-0.9-0.3c-0.4,0-0.8,0.1-1.2,0.3c-0.4,0.2-0.9,0.6-1.4,1l-1.9-2.2c0.7-0.6,1.2-1,1.7-1.3
		c0.5-0.3,0.9-0.4,1.5-0.6s1.1-0.2,1.8-0.2c0.8,0,1.6,0.1,2.2,0.4s1.2,0.7,1.5,1.3s0.5,1.1,0.5,1.8c0,0.5-0.1,1-0.2,1.4
		s-0.3,0.8-0.6,1.3c-0.3,0.4-0.6,0.8-1,1.3s-1.4,1.3-2.8,2.6v0.1h4.9V438.2z"/>
	<path class="st3" d="M417.5,438.2H414v-6.8c0-0.8,0-1.6,0.1-2.3c-0.2,0.3-0.5,0.5-0.8,0.8l-1.5,1.2l-1.8-2.2l4.4-3.6h3.1V438.2z"/>
	<path class="st3" d="M451.5,438.2h-3.5v-6.8c0-0.8,0-1.6,0.1-2.3c-0.2,0.3-0.5,0.5-0.8,0.8l-1.5,1.2l-1.8-2.2l4.4-3.6h3.1V438.2z"
		/>
	<path class="st3" d="M71,459.4v-0.8c0-0.6,0.1-1.1,0.4-1.5c0.2-0.4,0.7-0.8,1.3-1.2c0.5-0.3,0.9-0.6,1.1-0.9
		c0.2-0.3,0.3-0.5,0.3-0.9c0-0.3-0.1-0.5-0.4-0.6c-0.2-0.2-0.5-0.2-0.9-0.2c-0.9,0-2,0.3-3.3,1l-1.3-2.5c1.5-0.9,3.1-1.3,4.8-1.3
		c1.4,0,2.5,0.3,3.2,0.9c0.8,0.6,1.2,1.4,1.2,2.5c0,0.7-0.2,1.4-0.5,1.9c-0.3,0.5-0.9,1.1-1.7,1.6c-0.6,0.4-1.1,0.7-1.2,0.9
		c-0.2,0.2-0.2,0.4-0.2,0.7v0.5H71z M70.6,462.7c0-0.6,0.2-1,0.5-1.3c0.3-0.3,0.8-0.5,1.5-0.5c0.6,0,1.1,0.2,1.4,0.5
		c0.3,0.3,0.5,0.8,0.5,1.3s-0.2,1-0.5,1.3c-0.3,0.3-0.8,0.5-1.4,0.5c-0.6,0-1.1-0.2-1.4-0.5C70.8,463.7,70.6,463.2,70.6,462.7z"/>
	<path class="st3" d="M105.3,459.4v-0.8c0-0.6,0.1-1.1,0.4-1.5c0.2-0.4,0.7-0.8,1.3-1.2c0.5-0.3,0.9-0.6,1.1-0.9
		c0.2-0.3,0.3-0.5,0.3-0.9c0-0.3-0.1-0.5-0.4-0.6c-0.2-0.2-0.5-0.2-0.9-0.2c-0.9,0-2,0.3-3.3,1l-1.3-2.5c1.5-0.9,3.1-1.3,4.8-1.3
		c1.4,0,2.5,0.3,3.2,0.9c0.8,0.6,1.2,1.4,1.2,2.5c0,0.7-0.2,1.4-0.5,1.9c-0.3,0.5-0.9,1.1-1.7,1.6c-0.6,0.4-1.1,0.7-1.2,0.9
		c-0.2,0.2-0.2,0.4-0.2,0.7v0.5H105.3z M104.9,462.7c0-0.6,0.2-1,0.5-1.3c0.3-0.3,0.8-0.5,1.5-0.5c0.6,0,1.1,0.2,1.4,0.5
		c0.3,0.3,0.5,0.8,0.5,1.3s-0.2,1-0.5,1.3c-0.3,0.3-0.8,0.5-1.4,0.5c-0.6,0-1.1-0.2-1.4-0.5C105,463.7,104.9,463.2,104.9,462.7z"/>
	<path class="st3" d="M139.5,459.4v-0.8c0-0.6,0.1-1.1,0.4-1.5c0.2-0.4,0.7-0.8,1.3-1.2c0.5-0.3,0.9-0.6,1.1-0.9
		c0.2-0.3,0.3-0.5,0.3-0.9c0-0.3-0.1-0.5-0.4-0.6c-0.2-0.2-0.5-0.2-0.9-0.2c-0.9,0-2,0.3-3.3,1l-1.3-2.5c1.5-0.9,3.1-1.3,4.8-1.3
		c1.4,0,2.5,0.3,3.2,0.9c0.8,0.6,1.2,1.4,1.2,2.5c0,0.7-0.2,1.4-0.5,1.9c-0.3,0.5-0.9,1.1-1.7,1.6c-0.6,0.4-1.1,0.7-1.2,0.9
		c-0.2,0.2-0.2,0.4-0.2,0.7v0.5H139.5z M139.1,462.7c0-0.6,0.2-1,0.5-1.3c0.3-0.3,0.8-0.5,1.5-0.5c0.6,0,1.1,0.2,1.4,0.5
		c0.3,0.3,0.5,0.8,0.5,1.3s-0.2,1-0.5,1.3c-0.3,0.3-0.8,0.5-1.4,0.5c-0.6,0-1.1-0.2-1.4-0.5C139.3,463.7,139.1,463.2,139.1,462.7z"
		/>
	<path class="st3" d="M173.8,459.4v-0.8c0-0.6,0.1-1.1,0.4-1.5c0.2-0.4,0.7-0.8,1.3-1.2c0.5-0.3,0.9-0.6,1.1-0.9
		c0.2-0.3,0.3-0.5,0.3-0.9c0-0.3-0.1-0.5-0.4-0.6c-0.2-0.2-0.5-0.2-0.9-0.2c-0.9,0-2,0.3-3.3,1l-1.3-2.5c1.5-0.9,3.1-1.3,4.8-1.3
		c1.4,0,2.5,0.3,3.2,0.9c0.8,0.6,1.2,1.4,1.2,2.5c0,0.7-0.2,1.4-0.5,1.9c-0.3,0.5-0.9,1.1-1.7,1.6c-0.6,0.4-1.1,0.7-1.2,0.9
		c-0.2,0.2-0.2,0.4-0.2,0.7v0.5H173.8z M173.4,462.7c0-0.6,0.2-1,0.5-1.3c0.3-0.3,0.8-0.5,1.5-0.5c0.6,0,1.1,0.2,1.4,0.5
		c0.3,0.3,0.5,0.8,0.5,1.3s-0.2,1-0.5,1.3c-0.3,0.3-0.8,0.5-1.4,0.5c-0.6,0-1.1-0.2-1.4-0.5C173.6,463.7,173.4,463.2,173.4,462.7z"
		/>
	<path class="st3" d="M208.1,459.4v-0.8c0-0.6,0.1-1.1,0.4-1.5c0.2-0.4,0.7-0.8,1.3-1.2c0.5-0.3,0.9-0.6,1.1-0.9
		c0.2-0.3,0.3-0.5,0.3-0.9c0-0.3-0.1-0.5-0.4-0.6c-0.2-0.2-0.5-0.2-0.9-0.2c-0.9,0-2,0.3-3.3,1l-1.3-2.5c1.5-0.9,3.1-1.3,4.8-1.3
		c1.4,0,2.5,0.3,3.2,0.9c0.8,0.6,1.2,1.4,1.2,2.5c0,0.7-0.2,1.4-0.5,1.9c-0.3,0.5-0.9,1.1-1.7,1.6c-0.6,0.4-1.1,0.7-1.2,0.9
		c-0.2,0.2-0.2,0.4-0.2,0.7v0.5H208.1z M207.7,462.7c0-0.6,0.2-1,0.5-1.3c0.3-0.3,0.8-0.5,1.5-0.5c0.6,0,1.1,0.2,1.4,0.5
		c0.3,0.3,0.5,0.8,0.5,1.3s-0.2,1-0.5,1.3c-0.3,0.3-0.8,0.5-1.4,0.5c-0.6,0-1.1-0.2-1.4-0.5C207.8,463.7,207.7,463.2,207.7,462.7z"
		/>
	<path class="st3" d="M242.3,459.4v-0.8c0-0.6,0.1-1.1,0.4-1.5c0.2-0.4,0.7-0.8,1.3-1.2c0.5-0.3,0.9-0.6,1.1-0.9
		c0.2-0.3,0.3-0.5,0.3-0.9c0-0.3-0.1-0.5-0.4-0.6c-0.2-0.2-0.5-0.2-0.9-0.2c-0.9,0-2,0.3-3.3,1l-1.3-2.5c1.5-0.9,3.1-1.3,4.8-1.3
		c1.4,0,2.5,0.3,3.2,0.9c0.8,0.6,1.2,1.4,1.2,2.5c0,0.7-0.2,1.4-0.5,1.9c-0.3,0.5-0.9,1.1-1.7,1.6c-0.6,0.4-1.1,0.7-1.2,0.9
		c-0.2,0.2-0.2,0.4-0.2,0.7v0.5H242.3z M241.9,462.7c0-0.6,0.2-1,0.5-1.3c0.3-0.3,0.8-0.5,1.5-0.5c0.6,0,1.1,0.2,1.4,0.5
		c0.3,0.3,0.5,0.8,0.5,1.3s-0.2,1-0.5,1.3c-0.3,0.3-0.8,0.5-1.4,0.5c-0.6,0-1.1-0.2-1.4-0.5C242.1,463.7,241.9,463.2,241.9,462.7z"
		/>
	<path class="st3" d="M276.6,459.4v-0.8c0-0.6,0.1-1.1,0.4-1.5c0.2-0.4,0.7-0.8,1.3-1.2c0.5-0.3,0.9-0.6,1.1-0.9
		c0.2-0.3,0.3-0.5,0.3-0.9c0-0.3-0.1-0.5-0.4-0.6c-0.2-0.2-0.5-0.2-0.9-0.2c-0.9,0-2,0.3-3.3,1l-1.3-2.5c1.5-0.9,3.1-1.3,4.8-1.3
		c1.4,0,2.5,0.3,3.2,0.9c0.8,0.6,1.2,1.4,1.2,2.5c0,0.7-0.2,1.4-0.5,1.9c-0.3,0.5-0.9,1.1-1.7,1.6c-0.6,0.4-1.1,0.7-1.2,0.9
		c-0.2,0.2-0.2,0.4-0.2,0.7v0.5H276.6z M276.2,462.7c0-0.6,0.2-1,0.5-1.3c0.3-0.3,0.8-0.5,1.5-0.5c0.6,0,1.1,0.2,1.4,0.5
		c0.3,0.3,0.5,0.8,0.5,1.3s-0.2,1-0.5,1.3c-0.3,0.3-0.8,0.5-1.4,0.5c-0.6,0-1.1-0.2-1.4-0.5C276.4,463.7,276.2,463.2,276.2,462.7z"
		/>
	<path class="st3" d="M310.9,459.4v-0.8c0-0.6,0.1-1.1,0.4-1.5c0.2-0.4,0.7-0.8,1.3-1.2c0.5-0.3,0.9-0.6,1.1-0.9
		c0.2-0.3,0.3-0.5,0.3-0.9c0-0.3-0.1-0.5-0.4-0.6c-0.2-0.2-0.5-0.2-0.9-0.2c-0.9,0-2,0.3-3.3,1l-1.3-2.5c1.5-0.9,3.1-1.3,4.8-1.3
		c1.4,0,2.5,0.3,3.2,0.9c0.8,0.6,1.2,1.4,1.2,2.5c0,0.7-0.2,1.4-0.5,1.9c-0.3,0.5-0.9,1.1-1.7,1.6c-0.6,0.4-1.1,0.7-1.2,0.9
		c-0.2,0.2-0.2,0.4-0.2,0.7v0.5H310.9z M310.5,462.7c0-0.6,0.2-1,0.5-1.3c0.3-0.3,0.8-0.5,1.5-0.5c0.6,0,1.1,0.2,1.4,0.5
		s0.5,0.8,0.5,1.3s-0.2,1-0.5,1.3c-0.3,0.3-0.8,0.5-1.4,0.5c-0.6,0-1.1-0.2-1.4-0.5C310.6,463.7,310.5,463.2,310.5,462.7z"/>
	<path class="st3" d="M345.1,459.4v-0.8c0-0.6,0.1-1.1,0.4-1.5c0.2-0.4,0.7-0.8,1.3-1.2c0.5-0.3,0.9-0.6,1.1-0.9
		c0.2-0.3,0.3-0.5,0.3-0.9c0-0.3-0.1-0.5-0.4-0.6c-0.2-0.2-0.5-0.2-0.9-0.2c-0.9,0-2,0.3-3.3,1l-1.3-2.5c1.5-0.9,3.1-1.3,4.8-1.3
		c1.4,0,2.5,0.3,3.2,0.9c0.8,0.6,1.2,1.4,1.2,2.5c0,0.7-0.2,1.4-0.5,1.9c-0.3,0.5-0.9,1.1-1.7,1.6c-0.6,0.4-1.1,0.7-1.2,0.9
		c-0.2,0.2-0.2,0.4-0.2,0.7v0.5H345.1z M344.7,462.7c0-0.6,0.2-1,0.5-1.3c0.3-0.3,0.8-0.5,1.5-0.5c0.6,0,1.1,0.2,1.4,0.5
		s0.5,0.8,0.5,1.3s-0.2,1-0.5,1.3c-0.3,0.3-0.8,0.5-1.4,0.5c-0.6,0-1.1-0.2-1.4-0.5C344.9,463.7,344.7,463.2,344.7,462.7z"/>
	<path class="st3" d="M379.4,459.4v-0.8c0-0.6,0.1-1.1,0.4-1.5c0.2-0.4,0.7-0.8,1.3-1.2c0.5-0.3,0.9-0.6,1.1-0.9
		c0.2-0.3,0.3-0.5,0.3-0.9c0-0.3-0.1-0.5-0.4-0.6c-0.2-0.2-0.5-0.2-0.9-0.2c-0.9,0-2,0.3-3.3,1l-1.3-2.5c1.5-0.9,3.1-1.3,4.8-1.3
		c1.4,0,2.5,0.3,3.2,0.9c0.8,0.6,1.2,1.4,1.2,2.5c0,0.7-0.2,1.4-0.5,1.9c-0.3,0.5-0.9,1.1-1.7,1.6c-0.6,0.4-1.1,0.7-1.2,0.9
		c-0.2,0.2-0.2,0.4-0.2,0.7v0.5H379.4z M379,462.7c0-0.6,0.2-1,0.5-1.3c0.3-0.3,0.8-0.5,1.5-0.5c0.6,0,1.1,0.2,1.4,0.5
		s0.5,0.8,0.5,1.3s-0.2,1-0.5,1.3c-0.3,0.3-0.8,0.5-1.4,0.5c-0.6,0-1.1-0.2-1.4-0.5C379.2,463.7,379,463.2,379,462.7z"/>
	<path class="st3" d="M413.7,459.4v-0.8c0-0.6,0.1-1.1,0.4-1.5c0.2-0.4,0.7-0.8,1.3-1.2c0.5-0.3,0.9-0.6,1.1-0.9
		c0.2-0.3,0.3-0.5,0.3-0.9c0-0.3-0.1-0.5-0.4-0.6c-0.2-0.2-0.5-0.2-0.9-0.2c-0.9,0-2,0.3-3.3,1l-1.3-2.5c1.5-0.9,3.1-1.3,4.8-1.3
		c1.4,0,2.5,0.3,3.2,0.9c0.8,0.6,1.2,1.4,1.2,2.5c0,0.7-0.2,1.4-0.5,1.9c-0.3,0.5-0.9,1.1-1.7,1.6c-0.6,0.4-1.1,0.7-1.2,0.9
		c-0.2,0.2-0.2,0.4-0.2,0.7v0.5H413.7z M413.3,462.7c0-0.6,0.2-1,0.5-1.3c0.3-0.3,0.8-0.5,1.5-0.5c0.6,0,1.1,0.2,1.4,0.5
		s0.5,0.8,0.5,1.3s-0.2,1-0.5,1.3c-0.3,0.3-0.8,0.5-1.4,0.5c-0.6,0-1.1-0.2-1.4-0.5C413.5,463.7,413.3,463.2,413.3,462.7z"/>
	<path class="st3" d="M448,459.4v-0.8c0-0.6,0.1-1.1,0.4-1.5c0.2-0.4,0.7-0.8,1.3-1.2c0.5-0.3,0.9-0.6,1.1-0.9
		c0.2-0.3,0.3-0.5,0.3-0.9c0-0.3-0.1-0.5-0.4-0.6c-0.2-0.2-0.5-0.2-0.9-0.2c-0.9,0-2,0.3-3.3,1l-1.3-2.5c1.5-0.9,3.1-1.3,4.8-1.3
		c1.4,0,2.5,0.3,3.2,0.9c0.8,0.6,1.2,1.4,1.2,2.5c0,0.7-0.2,1.4-0.5,1.9c-0.3,0.5-0.9,1.1-1.7,1.6c-0.6,0.4-1.1,0.7-1.2,0.9
		c-0.2,0.2-0.2,0.4-0.2,0.7v0.5H448z M447.6,462.7c0-0.6,0.2-1,0.5-1.3c0.3-0.3,0.8-0.5,1.5-0.5c0.6,0,1.1,0.2,1.4,0.5
		s0.5,0.8,0.5,1.3s-0.2,1-0.5,1.3c-0.3,0.3-0.8,0.5-1.4,0.5c-0.6,0-1.1-0.2-1.4-0.5C447.7,463.7,447.6,463.2,447.6,462.7z"/>
	<path class="st3" d="M482.2,459.4v-0.8c0-0.6,0.1-1.1,0.4-1.5c0.2-0.4,0.7-0.8,1.3-1.2c0.5-0.3,0.9-0.6,1.1-0.9
		c0.2-0.3,0.3-0.5,0.3-0.9c0-0.3-0.1-0.5-0.4-0.6c-0.2-0.2-0.5-0.2-0.9-0.2c-0.9,0-2,0.3-3.3,1l-1.3-2.5c1.5-0.9,3.1-1.3,4.8-1.3
		c1.4,0,2.5,0.3,3.2,0.9c0.8,0.6,1.2,1.4,1.2,2.5c0,0.7-0.2,1.4-0.5,1.9c-0.3,0.5-0.9,1.1-1.7,1.6c-0.6,0.4-1.1,0.7-1.2,0.9
		c-0.2,0.2-0.2,0.4-0.2,0.7v0.5H482.2z M481.8,462.7c0-0.6,0.2-1,0.5-1.3s0.8-0.5,1.5-0.5c0.6,0,1.1,0.2,1.4,0.5
		c0.3,0.3,0.5,0.8,0.5,1.3s-0.2,1-0.5,1.3c-0.3,0.3-0.8,0.5-1.4,0.5c-0.6,0-1.1-0.2-1.4-0.5C482,463.7,481.8,463.2,481.8,462.7z"/>
	<path class="st3" d="M516.5,459.4v-0.8c0-0.6,0.1-1.1,0.4-1.5c0.2-0.4,0.7-0.8,1.3-1.2c0.5-0.3,0.9-0.6,1.1-0.9
		c0.2-0.3,0.3-0.5,0.3-0.9c0-0.3-0.1-0.5-0.4-0.6c-0.2-0.2-0.5-0.2-0.9-0.2c-0.9,0-2,0.3-3.3,1l-1.3-2.5c1.5-0.9,3.1-1.3,4.8-1.3
		c1.4,0,2.5,0.3,3.2,0.9c0.8,0.6,1.2,1.4,1.2,2.5c0,0.7-0.2,1.4-0.5,1.9c-0.3,0.5-0.9,1.1-1.7,1.6c-0.6,0.4-1.1,0.7-1.2,0.9
		c-0.2,0.2-0.2,0.4-0.2,0.7v0.5H516.5z M516.1,462.7c0-0.6,0.2-1,0.5-1.3s0.8-0.5,1.5-0.5c0.6,0,1.1,0.2,1.4,0.5
		c0.3,0.3,0.5,0.8,0.5,1.3s-0.2,1-0.5,1.3c-0.3,0.3-0.8,0.5-1.4,0.5c-0.6,0-1.1-0.2-1.4-0.5C516.3,463.7,516.1,463.2,516.1,462.7z"
		/>
</g>
</svg>
