<?xml version="1.0" encoding="utf-8"?>
<!-- Generator: Adobe Illustrator 24.2.0, SVG Export Plug-In . SVG Version: 6.00 Build 0)  -->
<svg version="1.1" id="Layer_1" xmlns="http://www.w3.org/2000/svg" xmlns:xlink="http://www.w3.org/1999/xlink" x="0px" y="0px"
	 viewBox="0 0 600 700" style="enable-background:new 0 0 600 700;" xml:space="preserve">
<style type="text/css">
	.st0{opacity:0.2;fill:#FFFFFF;enable-background:new    ;}
	.st1{opacity:0.2;}
	.st2{fill:#CE5C6D;}
	.st3{fill:#FFFFFF;}
</style>
<g>
	<polygon id="piece-iii_1_" class="st0" points="498.2,598.2 498.3,598 498.3,598 498.3,598 517.7,556.7 478.8,539.2 453.3,592.6 
		457.3,603.5 481.1,623.5 502,608.4 498.3,598.3 	"/>
	<polygon id="piece-v" class="st0" points="595.9,390.2 535.5,297.1 513.8,282.9 373.7,191.7 295.2,316.8 286.7,398.1 380.7,487.3 
		520.8,550.1 	"/>
	<path id="piece-i" class="st0" d="M461.7,616.8l-53,31.4c0,0-0.2,11.3,5.3,11.3s17.7,0,17.7,0L475,628L461.7,616.8z"/>
	<polygon id="piece-iv" class="st0" points="683.4,525.1 600.6,397.4 506.2,598.4 510,608.9 614,696.8 687.2,670.9 706.8,598.3 	"/>
	<path id="piece-ii" class="st0" d="M411.7,682.9l0.5,1.6c0,0,1.4,14.2,6.6,14.4c5.1,0.2,186.5,0.2,186.5,0.2l-99.7-84.2
		L411.7,682.9z"/>
	<polyline class="st0" points="284.3,67.1 239.6,95.4 207,207.5 208.3,247.9 290.9,131.5 296.6,26.6 	"/>
	<polygon class="st0" points="264.2,-42.7 94.8,-1.6 81.7,26.3 219,53.5 	"/>
	<path class="st0" d="M76.3,2.9c-6.1,1.6,0,17.8,0,17.8l9.5-20.1C85.7,0.6,82.4,1.3,76.3,2.9z"/>
	<g class="st1">
		<g>
			<polygon class="st2" points="254.7,688.4 307.7,428.1 306.3,426.8 279.3,401.2 279.6,400.8 279.1,400.8 288.1,314.4 288.1,314.4 
				369.6,184.5 302.7,26.6 298.1,134 298,134 298,134 208.7,260 208.8,263.4 241.1,392.3 241.1,658.7 			"/>
			<polygon class="st3" points="277.1,659.5 333.1,452.2 314,434.1 268.1,659.5 			"/>
		</g>
		<path class="st3" d="M251.5,699l-16.1-35l-33.7,26.7c0,0-0.6,8.3,3.8,8.3C209.9,699,251.5,699,251.5,699z"/>
	</g>
	<path id="piece-x" class="st0" d="M278,62.3c0,0,21.6-70.4,24.8-81.9c3.3-11.5-29.9-24.3-29.9-24.3L225.1,57.6l-3.8,11.2L238,87.8
		L278,62.3z"/>
</g>
<g>
	<polygon class="st2" points="254.7,688.4 307.7,428.1 306.3,426.8 279.3,401.2 279.6,400.8 279.1,400.8 288.1,314.4 288.1,314.4 
		369.6,184.5 302.7,26.6 298.1,134 298,134 298,134 208.7,260 208.8,263.4 241.1,392.3 241.1,658.7 	"/>
</g>
</svg>
