<?xml version="1.0" encoding="utf-8"?>
<!-- Generator: Adobe Illustrator 24.2.0, SVG Export Plug-In . SVG Version: 6.00 Build 0)  -->
<svg version="1.1" id="Layer_1" xmlns="http://www.w3.org/2000/svg" xmlns:xlink="http://www.w3.org/1999/xlink" x="0px" y="0px"
	 viewBox="0 0 600 700" style="enable-background:new 0 0 600 700;" xml:space="preserve">
<style type="text/css">
	.st0{opacity:0.2;fill:#FFFFFF;enable-background:new    ;}
	.st1{opacity:0.2;}
	.st2{fill:#FFFFFF;}
	.st3{fill:#CE5C6D;}
</style>
<g>
	<polygon id="piece-iii_1_" class="st0" points="743.3,468.6 743.5,468.3 743.4,468.1 743.6,468.1 788.1,373.3 698.7,333.3 
		640.2,455.7 649.3,480.7 704.1,526.8 752.1,492 743.6,468.7 	"/>
	<polygon id="piece-v" class="st0" points="967.6,-8.8 829,-222.5 779,-255.2 457.6,-464.4 277.3,-177.3 257.8,9.4 473.6,214 
		795.2,358.2 	"/>
	<path id="piece-i" class="st0" d="M659.5,511.3l-121.7,72.1c0,0-0.5,25.9,12.1,25.9s40.5,0,40.5,0l99.7-72.3L659.5,511.3z"/>
	<polygon id="piece-iv" class="st0" points="1168.4,300.9 978.3,7.7 761.6,469.1 770.3,493.1 1009.2,694.9 1177,635.5 1222.1,468.8 
			"/>
	<path id="piece-ii" class="st0" d="M544.8,663l1.3,3.6c0,0,3.2,32.6,15.1,33c11.8,0.4,428.2,0.4,428.2,0.4L760.4,506.6L544.8,663z"
		/>
	<polyline class="st0" points="252.3,-750.4 149.9,-685.5 74.9,-428.1 77.8,-335.4 267.4,-602.5 280.7,-843.3 	"/>
	<polygon class="st0" points="206.2,-1002.4 -182.5,-908.1 -212.6,-844.1 102.5,-781.6 	"/>
	<path class="st0" d="M-225.1-897.8c-14,3.6,0,40.9,0,40.9l21.7-46.2C-203.4-903-211.1-901.3-225.1-897.8z"/>
	<g class="st1">
		<g>
			<polygon class="st2" points="184.5,675.6 306.1,78.3 302.8,75.2 240.8,16.4 241.5,15.6 240.3,15.5 261,-182.8 261,-182.8 
				448.2,-481 294.6,-843.3 283.9,-596.9 283.8,-596.9 283.9,-596.8 78.7,-307.7 79,-299.7 153.2,-4 153.2,607.6 			"/>
			<polygon class="st3" points="235.8,609.3 364.4,133.5 320.5,92 215.2,609.3 			"/>
		</g>
		<path class="st2" d="M177.1,700l-36.9-80.3l-77.3,61.2c0,0-1.3,19.1,8.8,19.1C81.7,700,177.1,700,177.1,700z"/>
	</g>
	<path id="piece-x" class="st0" d="M238-761.3c0,0,49.5-161.6,57-188s-68.7-55.7-68.7-55.7L116.5-772.1l-8.6,25.8l38.2,43.4
		L238-761.3z"/>
</g>
<polygon class="st3" points="235.8,610 364.4,134.2 320.5,92.7 215.2,610 "/>
</svg>
