<?xml version="1.0" encoding="utf-8"?>
<!-- Generator: Adobe Illustrator 24.2.0, SVG Export Plug-In . SVG Version: 6.00 Build 0)  -->
<svg version="1.1" id="Layer_1" xmlns="http://www.w3.org/2000/svg" xmlns:xlink="http://www.w3.org/1999/xlink" x="0px" y="0px"
	 viewBox="0 0 600 700" style="enable-background:new 0 0 600 700;" xml:space="preserve">
<style type="text/css">
	.st0{opacity:0.2;fill:#FFFFFF;enable-background:new    ;}
	.st1{opacity:0.2;enable-background:new    ;}
	.st2{fill:#FFFFFF;}
	.st3{fill:#CE5C6D;}
	.st4{fill:#FFFFFF;stroke:#FFFFFF;stroke-width:4;}
</style>
<g>
	<polygon id="piece-iii_1_" class="st0" points="1323.8,2862.5 1324.1,2861.8 1324,2861.6 1324.2,2861.5 1408.6,2681.8 
		1239.2,2605.8 1128.3,2838 1145.6,2885.4 1249.4,2972.8 1340.4,2906.8 1324.4,2862.7 	"/>
	<polygon id="piece-v" class="st0" points="1749.1,1957.2 1486.2,1551.9 1391.5,1489.9 781.9,1093.1 440,1637.6 403,1991.7 
		812.3,2379.6 1422.1,2653.1 	"/>
	<path id="piece-i" class="st0" d="M1164.8,2943.5l-230.9,136.7c0,0-0.9,49.1,22.9,49.1c23.8,0,76.9,0,76.9,0l189.1-137.1
		L1164.8,2943.5z"/>
	<polygon id="piece-iv" class="st0" points="2130,2544.5 1769.4,1988.5 1358.4,2863.4 1374.9,2908.9 1828,3291.6 2146.2,3178.9 
		2231.8,2862.8 	"/>
	<path id="piece-ii" class="st0" d="M947.3,3231.1l2.4,6.9c0,0,6.2,61.8,28.6,62.5s812,0.7,812,0.7l-434-366.7L947.3,3231.1z"/>
	<polyline class="st0" points="392.6,550.8 198.3,673.8 56.1,1162 61.7,1337.8 421.3,831.2 446.4,374.5 	"/>
	<polygon class="st0" points="305.1,72.9 -432,251.7 -489,373 108.5,491.6 	"/>
	<path class="st0" d="M-512.8,271.3c-26.5,6.8,0,77.6,0,77.6l41.2-87.6C-471.6,261.3-486.2,264.5-512.8,271.3z"/>
	<g class="st1">
		<g>
			<polygon class="st2" points="264.1,3255.1 494.6,2122.3 488.4,2116.4 370.7,2004.9 372.2,2003.4 369.9,2003.2 409.2,1627.2 
				409.1,1627.1 764.2,1061.7 472.9,374.5 452.6,841.9 452.4,841.9 452.5,842 63.4,1390.2 63.9,1405.4 204.7,1966.1 204.7,3126 			
				"/>
			<polygon class="st2" points="361.3,3129.3 605.2,2227.1 522,2148.3 322.3,3129.3 			"/>
		</g>
		<path class="st2" d="M250,3301.2l-70-152.3L33.3,3265c0,0-2.4,36.2,16.7,36.2C69,3301.2,250,3301.2,250,3301.2z"/>
	</g>
	<path id="piece-x" class="st3" d="M365.5,530c0,0,93.9-306.5,108-356.5C487.7,123.6,343.3,68,343.3,68L135.1,509.6l-16.4,48.9
		l72.4,82.3L365.5,530z"/>
</g>
<g>
	<path class="st3" d="M180.8,599c0-0.1,0.1-0.2,0.2-0.2c0.1,0,0.2,0.1,0.2,0.2c0,0.1-0.1,0.2-0.2,0.2
		C180.9,599.2,180.8,599.1,180.8,599z"/>
	<path class="st3" d="M181.6,599c0-0.1,0.1-0.2,0.2-0.2s0.2,0.1,0.2,0.2c0,0.1-0.1,0.2-0.2,0.2C181.7,599.2,181.6,599.1,181.6,599z"
		/>
	<path class="st3" d="M182.3,599c0-0.1,0.1-0.2,0.2-0.2c0.1,0,0.2,0.1,0.2,0.2c0,0.1-0.1,0.2-0.2,0.2
		C182.4,599.2,182.3,599.1,182.3,599z"/>
	<path class="st3" d="M183,599c0-0.1,0.1-0.2,0.2-0.2c0.1,0,0.2,0.1,0.2,0.2c0,0.1-0.1,0.2-0.2,0.2C183.1,599.2,183,599.1,183,599z"
		/>
	<path class="st3" d="M185.3,598.1v0.2h-0.9v-0.2H185.3z"/>
	<path class="st3" d="M187.2,598.1v0.2h-0.9v-0.2H187.2z"/>
	<path class="st3" d="M188.2,599c0-0.1,0.1-0.2,0.2-0.2c0.1,0,0.2,0.1,0.2,0.2c0,0.1-0.1,0.2-0.2,0.2
		C188.3,599.2,188.2,599.1,188.2,599z"/>
	<path class="st3" d="M189.8,598.1v0.2h-0.9v-0.2H189.8z"/>
	<path class="st3" d="M190.8,598.1v0.2H190v-0.2H190.8z"/>
	<path class="st3" d="M191.1,599c0-0.1,0.1-0.2,0.2-0.2c0.1,0,0.2,0.1,0.2,0.2c0,0.1-0.1,0.2-0.2,0.2
		C191.2,599.2,191.1,599.1,191.1,599z"/>
	<path class="st3" d="M192.6,599c0-0.1,0.1-0.2,0.2-0.2s0.2,0.1,0.2,0.2c0,0.1-0.1,0.2-0.2,0.2C192.7,599.2,192.6,599.1,192.6,599z"
		/>
	<path class="st3" d="M193.4,599c0-0.1,0.1-0.2,0.2-0.2c0.1,0,0.2,0.1,0.2,0.2c0,0.1-0.1,0.2-0.2,0.2
		C193.4,599.2,193.4,599.1,193.4,599z"/>
	<path class="st3" d="M194.1,599c0-0.1,0.1-0.2,0.2-0.2c0.1,0,0.2,0.1,0.2,0.2c0,0.1-0.1,0.2-0.2,0.2
		C194.2,599.2,194.1,599.1,194.1,599z"/>
	<path class="st3" d="M196.4,598.1v0.2h-0.9v-0.2H196.4z"/>
	<path class="st3" d="M197.5,598.1v0.2h-0.9v-0.2H197.5z"/>
	<path class="st3" d="M198.6,598.1v0.2h-0.9v-0.2H198.6z"/>
	<path class="st3" d="M198.9,599c0-0.1,0.1-0.2,0.2-0.2s0.2,0.1,0.2,0.2c0,0.1-0.1,0.2-0.2,0.2C198.9,599.2,198.9,599.1,198.9,599z"
		/>
	<path class="st3" d="M199.6,599c0-0.1,0.1-0.2,0.2-0.2s0.2,0.1,0.2,0.2c0,0.1-0.1,0.2-0.2,0.2C199.7,599.2,199.6,599.1,199.6,599z"
		/>
	<path class="st3" d="M200.3,599c0-0.1,0.1-0.2,0.2-0.2c0.1,0,0.2,0.1,0.2,0.2c0,0.1-0.1,0.2-0.2,0.2
		C200.4,599.2,200.3,599.1,200.3,599z"/>
	<path class="st3" d="M202.6,598.1v0.2h-0.9v-0.2H202.6z"/>
	<path class="st3" d="M202.9,599c0-0.1,0.1-0.2,0.2-0.2c0.1,0,0.2,0.1,0.2,0.2c0,0.1-0.1,0.2-0.2,0.2
		C203,599.2,202.9,599.1,202.9,599z"/>
	<path class="st3" d="M203.6,599c0-0.1,0.1-0.2,0.2-0.2s0.2,0.1,0.2,0.2c0,0.1-0.1,0.2-0.2,0.2C203.7,599.2,203.6,599.1,203.6,599z"
		/>
	<path class="st3" d="M205.2,598.1v0.2h-0.9v-0.2H205.2z"/>
	<path class="st3" d="M205.5,599c0-0.1,0.1-0.2,0.2-0.2s0.2,0.1,0.2,0.2c0,0.1-0.1,0.2-0.2,0.2C205.5,599.2,205.5,599.1,205.5,599z"
		/>
	<path class="st3" d="M207.8,598.1v0.2h-0.9v-0.2H207.8z"/>
	<path class="st3" d="M208,599c0-0.1,0.1-0.2,0.2-0.2c0.1,0,0.2,0.1,0.2,0.2c0,0.1-0.1,0.2-0.2,0.2C208.1,599.2,208,599.1,208,599z"
		/>
	<path class="st3" d="M208.8,599c0-0.1,0.1-0.2,0.2-0.2c0.1,0,0.2,0.1,0.2,0.2c0,0.1-0.1,0.2-0.2,0.2
		C208.9,599.2,208.8,599.1,208.8,599z"/>
	<path class="st3" d="M210.3,598.1v0.2h-0.9v-0.2H210.3z"/>
	<path class="st3" d="M210.6,599c0-0.1,0.1-0.2,0.2-0.2c0.1,0,0.2,0.1,0.2,0.2c0,0.1-0.1,0.2-0.2,0.2
		C210.7,599.2,210.6,599.1,210.6,599z"/>
	<path class="st3" d="M180.8,603.2c0-0.1,0.1-0.2,0.2-0.2c0.1,0,0.2,0.1,0.2,0.2c0,0.1-0.1,0.2-0.2,0.2
		C180.9,603.5,180.8,603.4,180.8,603.2z"/>
	<path class="st3" d="M182.4,602.3v0.2h-0.9v-0.2H182.4z"/>
	<path class="st3" d="M183.5,602.3v0.2h-0.9v-0.2H183.5z"/>
	<path class="st3" d="M184.5,603.2c0-0.1,0.1-0.2,0.2-0.2c0.1,0,0.2,0.1,0.2,0.2c0,0.1-0.1,0.2-0.2,0.2
		C184.6,603.5,184.5,603.4,184.5,603.2z"/>
	<path class="st3" d="M186,602.3v0.2h-0.9v-0.2H186z"/>
	<path class="st3" d="M187.1,602.3v0.2h-0.9v-0.2H187.1z"/>
	<path class="st3" d="M188.2,603.2c0-0.1,0.1-0.2,0.2-0.2c0.1,0,0.2,0.1,0.2,0.2c0,0.1-0.1,0.2-0.2,0.2
		C188.3,603.5,188.2,603.4,188.2,603.2z"/>
	<path class="st3" d="M189.7,602.3v0.2h-0.9v-0.2H189.7z"/>
	<path class="st3" d="M190.8,602.3v0.2h-0.9v-0.2H190.8z"/>
	<path class="st3" d="M191.8,603.2c0-0.1,0.1-0.2,0.2-0.2c0.1,0,0.2,0.1,0.2,0.2c0,0.1-0.1,0.2-0.2,0.2
		C191.9,603.5,191.8,603.4,191.8,603.2z"/>
	<path class="st3" d="M193.4,602.3v0.2h-0.9v-0.2H193.4z"/>
	<path class="st3" d="M193.7,603.2c0-0.1,0.1-0.2,0.2-0.2c0.1,0,0.2,0.1,0.2,0.2c0,0.1-0.1,0.2-0.2,0.2
		C193.8,603.5,193.7,603.4,193.7,603.2z"/>
	<path class="st3" d="M195.2,602.3v0.2h-0.9v-0.2H195.2z"/>
	<path class="st3" d="M195.5,603.2c0-0.1,0.1-0.2,0.2-0.2c0.1,0,0.2,0.1,0.2,0.2c0,0.1-0.1,0.2-0.2,0.2
		C195.6,603.5,195.5,603.4,195.5,603.2z"/>
	<path class="st3" d="M197,602.3v0.2h-0.9v-0.2H197z"/>
	<path class="st3" d="M198.9,602.3v0.2H198v-0.2H198.9z"/>
	<path class="st3" d="M199.2,603.2c0-0.1,0.1-0.2,0.2-0.2c0.1,0,0.2,0.1,0.2,0.2c0,0.1-0.1,0.2-0.2,0.2
		C199.3,603.5,199.2,603.4,199.2,603.2z"/>
	<path class="st3" d="M200.7,602.3v0.2h-0.9v-0.2H200.7z"/>
	<path class="st3" d="M201.8,602.3v0.2h-0.9v-0.2H201.8z"/>
	<path class="st3" d="M203.6,602.3v0.2h-0.9v-0.2H203.6z"/>
	<path class="st3" d="M204.7,602.3v0.2h-0.9v-0.2H204.7z"/>
	<path class="st3" d="M205.8,602.3v0.2h-0.9v-0.2H205.8z"/>
	<path class="st3" d="M206.9,603.2c0-0.1,0.1-0.2,0.2-0.2c0.1,0,0.2,0.1,0.2,0.2c0,0.1-0.1,0.2-0.2,0.2
		C206.9,603.5,206.9,603.4,206.9,603.2z"/>
	<path class="st3" d="M207.6,603.2c0-0.1,0.1-0.2,0.2-0.2c0.1,0,0.2,0.1,0.2,0.2c0,0.1-0.1,0.2-0.2,0.2
		C207.7,603.5,207.6,603.4,207.6,603.2z"/>
	<path class="st3" d="M209.1,602.3v0.2h-0.9v-0.2H209.1z"/>
	<path class="st3" d="M211,602.3v0.2h-0.9v-0.2H211z"/>
	<path class="st3" d="M212,603.2c0-0.1,0.1-0.2,0.2-0.2c0.1,0,0.2,0.1,0.2,0.2c0,0.1-0.1,0.2-0.2,0.2
		C212.1,603.5,212,603.4,212,603.2z"/>
	<path class="st3" d="M212.8,603.2c0-0.1,0.1-0.2,0.2-0.2c0.1,0,0.2,0.1,0.2,0.2c0,0.1-0.1,0.2-0.2,0.2
		C212.8,603.5,212.8,603.4,212.8,603.2z"/>
	<path class="st3" d="M214.3,602.3v0.2h-0.9v-0.2H214.3z"/>
	<path class="st3" d="M181.6,606.6v0.2h-0.9v-0.2H181.6z"/>
	<path class="st3" d="M181.9,607.5c0-0.1,0.1-0.2,0.2-0.2s0.2,0.1,0.2,0.2c0,0.1-0.1,0.2-0.2,0.2C182,607.7,181.9,607.6,181.9,607.5
		z"/>
	<path class="st3" d="M182.7,607.5c0-0.1,0.1-0.2,0.2-0.2c0.1,0,0.2,0.1,0.2,0.2c0,0.1-0.1,0.2-0.2,0.2
		C182.7,607.7,182.7,607.6,182.7,607.5z"/>
	<path class="st3" d="M183.4,607.5c0-0.1,0.1-0.2,0.2-0.2c0.1,0,0.2,0.1,0.2,0.2c0,0.1-0.1,0.2-0.2,0.2
		C183.5,607.7,183.4,607.6,183.4,607.5z"/>
	<path class="st3" d="M184.9,607.5c0-0.1,0.1-0.2,0.2-0.2c0.1,0,0.2,0.1,0.2,0.2c0,0.1-0.1,0.2-0.2,0.2
		C185,607.7,184.9,607.6,184.9,607.5z"/>
	<path class="st3" d="M186.4,607.5c0-0.1,0.1-0.2,0.2-0.2c0.1,0,0.2,0.1,0.2,0.2c0,0.1-0.1,0.2-0.2,0.2
		C186.5,607.7,186.4,607.6,186.4,607.5z"/>
	<path class="st3" d="M187.9,606.6v0.2H187v-0.2H187.9z"/>
	<path class="st3" d="M188.2,607.5c0-0.1,0.1-0.2,0.2-0.2c0.1,0,0.2,0.1,0.2,0.2c0,0.1-0.1,0.2-0.2,0.2
		C188.3,607.7,188.2,607.6,188.2,607.5z"/>
	<path class="st3" d="M189.7,606.6v0.2h-0.9v-0.2H189.7z"/>
	<path class="st3" d="M190,607.5c0-0.1,0.1-0.2,0.2-0.2c0.1,0,0.2,0.1,0.2,0.2c0,0.1-0.1,0.2-0.2,0.2
		C190.1,607.7,190,607.6,190,607.5z"/>
	<path class="st3" d="M191.6,606.6v0.2h-0.9v-0.2H191.6z"/>
	<path class="st3" d="M193.4,606.6v0.2h-0.9v-0.2H193.4z"/>
	<path class="st3" d="M193.7,607.5c0-0.1,0.1-0.2,0.2-0.2s0.2,0.1,0.2,0.2c0,0.1-0.1,0.2-0.2,0.2
		C193.8,607.7,193.7,607.6,193.7,607.5z"/>
	<path class="st3" d="M195.2,606.6v0.2h-0.9v-0.2H195.2z"/>
	<path class="st3" d="M195.5,607.5c0-0.1,0.1-0.2,0.2-0.2s0.2,0.1,0.2,0.2c0,0.1-0.1,0.2-0.2,0.2
		C195.6,607.7,195.5,607.6,195.5,607.5z"/>
	<path class="st3" d="M197.8,606.6v0.2h-0.9v-0.2H197.8z"/>
	<path class="st3" d="M198.9,606.6v0.2H198v-0.2H198.9z"/>
	<path class="st3" d="M200,606.6v0.2h-0.9v-0.2H200z"/>
	<path class="st3" d="M201.8,606.6v0.2H201v-0.2H201.8z"/>
	<path class="st3" d="M202.9,606.6v0.2H202v-0.2H202.9z"/>
	<path class="st3" d="M204.8,606.6v0.2h-0.9v-0.2H204.8z"/>
	<path class="st3" d="M205.1,607.5c0-0.1,0.1-0.2,0.2-0.2s0.2,0.1,0.2,0.2c0,0.1-0.1,0.2-0.2,0.2
		C205.1,607.7,205.1,607.6,205.1,607.5z"/>
	<path class="st3" d="M205.8,607.5c0-0.1,0.1-0.2,0.2-0.2s0.2,0.1,0.2,0.2c0,0.1-0.1,0.2-0.2,0.2
		C205.9,607.7,205.8,607.6,205.8,607.5z"/>
	<path class="st3" d="M207.3,606.6v0.2h-0.9v-0.2H207.3z"/>
	<path class="st3" d="M207.6,607.5c0-0.1,0.1-0.2,0.2-0.2c0.1,0,0.2,0.1,0.2,0.2c0,0.1-0.1,0.2-0.2,0.2
		C207.7,607.7,207.6,607.6,207.6,607.5z"/>
	<path class="st3" d="M209.1,607.5c0-0.1,0.1-0.2,0.2-0.2c0.1,0,0.2,0.1,0.2,0.2c0,0.1-0.1,0.2-0.2,0.2
		C209.2,607.7,209.1,607.6,209.1,607.5z"/>
	<path class="st3" d="M210.6,606.6v0.2h-0.9v-0.2H210.6z"/>
	<path class="st3" d="M211.7,606.6v0.2h-0.9v-0.2H211.7z"/>
	<path class="st3" d="M212.8,607.5c0-0.1,0.1-0.2,0.2-0.2c0.1,0,0.2,0.1,0.2,0.2c0,0.1-0.1,0.2-0.2,0.2
		C212.9,607.7,212.8,607.6,212.8,607.5z"/>
	<path class="st3" d="M214.3,606.6v0.2h-0.9v-0.2H214.3z"/>
	<path class="st3" d="M181.6,610.9v0.2h-0.9v-0.2H181.6z"/>
	<path class="st3" d="M183.5,610.9v0.2h-0.9v-0.2H183.5z"/>
	<path class="st3" d="M183.8,611.8c0-0.1,0.1-0.2,0.2-0.2c0.1,0,0.2,0.1,0.2,0.2c0,0.1-0.1,0.2-0.2,0.2
		C183.9,612,183.8,611.9,183.8,611.8z"/>
	<path class="st3" d="M185.3,610.9v0.2h-0.9v-0.2H185.3z"/>
	<path class="st3" d="M185.6,611.8c0-0.1,0.1-0.2,0.2-0.2c0.1,0,0.2,0.1,0.2,0.2c0,0.1-0.1,0.2-0.2,0.2
		C185.7,612,185.6,611.9,185.6,611.8z"/>
	<path class="st3" d="M187.1,611.8c0-0.1,0.1-0.2,0.2-0.2s0.2,0.1,0.2,0.2c0,0.1-0.1,0.2-0.2,0.2C187.2,612,187.1,611.9,187.1,611.8
		z"/>
	<path class="st3" d="M187.8,611.8c0-0.1,0.1-0.2,0.2-0.2c0.1,0,0.2,0.1,0.2,0.2c0,0.1-0.1,0.2-0.2,0.2
		C187.9,612,187.8,611.9,187.8,611.8z"/>
	<path class="st3" d="M188.6,611.8c0-0.1,0.1-0.2,0.2-0.2c0.1,0,0.2,0.1,0.2,0.2c0,0.1-0.1,0.2-0.2,0.2
		C188.6,612,188.6,611.9,188.6,611.8z"/>
	<path class="st3" d="M189.3,611.8c0-0.1,0.1-0.2,0.2-0.2s0.2,0.1,0.2,0.2c0,0.1-0.1,0.2-0.2,0.2C189.4,612,189.3,611.9,189.3,611.8
		z"/>
	<path class="st3" d="M190.8,611.8c0-0.1,0.1-0.2,0.2-0.2s0.2,0.1,0.2,0.2c0,0.1-0.1,0.2-0.2,0.2C190.9,612,190.8,611.9,190.8,611.8
		z"/>
	<path class="st3" d="M191.5,611.8c0-0.1,0.1-0.2,0.2-0.2c0.1,0,0.2,0.1,0.2,0.2c0,0.1-0.1,0.2-0.2,0.2
		C191.6,612,191.5,611.9,191.5,611.8z"/>
	<path class="st3" d="M193,610.9v0.2h-0.9v-0.2H193z"/>
	<path class="st3" d="M194.1,610.9v0.2h-0.9v-0.2H194.1z"/>
	<path class="st3" d="M194.4,611.8c0-0.1,0.1-0.2,0.2-0.2s0.2,0.1,0.2,0.2c0,0.1-0.1,0.2-0.2,0.2C194.5,612,194.4,611.9,194.4,611.8
		z"/>
	<path class="st3" d="M195.2,611.8c0-0.1,0.1-0.2,0.2-0.2c0.1,0,0.2,0.1,0.2,0.2c0,0.1-0.1,0.2-0.2,0.2
		C195.3,612,195.2,611.9,195.2,611.8z"/>
	<path class="st3" d="M196.7,611.8c0-0.1,0.1-0.2,0.2-0.2s0.2,0.1,0.2,0.2c0,0.1-0.1,0.2-0.2,0.2C196.7,612,196.7,611.9,196.7,611.8
		z"/>
	<path class="st3" d="M197.4,611.8c0-0.1,0.1-0.2,0.2-0.2s0.2,0.1,0.2,0.2c0,0.1-0.1,0.2-0.2,0.2C197.5,612,197.4,611.9,197.4,611.8
		z"/>
	<path class="st3" d="M198.1,611.8c0-0.1,0.1-0.2,0.2-0.2c0.1,0,0.2,0.1,0.2,0.2c0,0.1-0.1,0.2-0.2,0.2
		C198.2,612,198.1,611.9,198.1,611.8z"/>
	<path class="st3" d="M199.7,610.9v0.2h-0.9v-0.2H199.7z"/>
	<path class="st3" d="M201.5,610.9v0.2h-0.9v-0.2H201.5z"/>
	<path class="st3" d="M201.8,611.8c0-0.1,0.1-0.2,0.2-0.2c0.1,0,0.2,0.1,0.2,0.2c0,0.1-0.1,0.2-0.2,0.2
		C201.9,612,201.8,611.9,201.8,611.8z"/>
	<path class="st3" d="M202.5,611.8c0-0.1,0.1-0.2,0.2-0.2c0.1,0,0.2,0.1,0.2,0.2c0,0.1-0.1,0.2-0.2,0.2
		C202.6,612,202.5,611.9,202.5,611.8z"/>
	<path class="st3" d="M204,611.8c0-0.1,0.1-0.2,0.2-0.2c0.1,0,0.2,0.1,0.2,0.2c0,0.1-0.1,0.2-0.2,0.2C204.1,612,204,611.9,204,611.8
		z"/>
	<path class="st3" d="M204.8,611.8c0-0.1,0.1-0.2,0.2-0.2c0.1,0,0.2,0.1,0.2,0.2c0,0.1-0.1,0.2-0.2,0.2
		C204.8,612,204.8,611.9,204.8,611.8z"/>
	<path class="st3" d="M205.5,611.8c0-0.1,0.1-0.2,0.2-0.2c0.1,0,0.2,0.1,0.2,0.2c0,0.1-0.1,0.2-0.2,0.2
		C205.6,612,205.5,611.9,205.5,611.8z"/>
	<path class="st3" d="M207,610.9v0.2h-0.9v-0.2H207z"/>
	<path class="st3" d="M208.9,610.9v0.2H208v-0.2H208.9z"/>
	<path class="st3" d="M209.2,611.8c0-0.1,0.1-0.2,0.2-0.2s0.2,0.1,0.2,0.2c0,0.1-0.1,0.2-0.2,0.2C209.2,612,209.2,611.9,209.2,611.8
		z"/>
	<path class="st3" d="M210.7,610.9v0.2h-0.9v-0.2H210.7z"/>
	<path class="st3" d="M211.8,610.9v0.2h-0.9v-0.2H211.8z"/>
	<path class="st3" d="M180.8,616c0-0.1,0.1-0.2,0.2-0.2c0.1,0,0.2,0.1,0.2,0.2c0,0.1-0.1,0.2-0.2,0.2
		C180.9,616.2,180.8,616.2,180.8,616z"/>
	<path class="st3" d="M182.4,615.1v0.2h-0.9v-0.2H182.4z"/>
	<path class="st3" d="M183.5,615.1v0.2h-0.9v-0.2H183.5z"/>
	<path class="st3" d="M185.3,615.1v0.2h-0.9v-0.2H185.3z"/>
	<path class="st3" d="M186.4,615.1v0.2h-0.9v-0.2H186.4z"/>
	<path class="st3" d="M187.5,615.1v0.2h-0.9v-0.2H187.5z"/>
	<path class="st3" d="M188.5,616c0-0.1,0.1-0.2,0.2-0.2s0.2,0.1,0.2,0.2c0,0.1-0.1,0.2-0.2,0.2C188.6,616.2,188.5,616.2,188.5,616z"
		/>
	<path class="st3" d="M190.1,615.1v0.2h-0.9v-0.2H190.1z"/>
	<path class="st3" d="M191.2,615.1v0.2h-0.9v-0.2H191.2z"/>
	<path class="st3" d="M192.2,615.1v0.2h-0.9v-0.2H192.2z"/>
	<path class="st3" d="M193.3,616c0-0.1,0.1-0.2,0.2-0.2s0.2,0.1,0.2,0.2c0,0.1-0.1,0.2-0.2,0.2C193.4,616.2,193.3,616.2,193.3,616z"
		/>
	<path class="st3" d="M194,616c0-0.1,0.1-0.2,0.2-0.2s0.2,0.1,0.2,0.2c0,0.1-0.1,0.2-0.2,0.2C194.1,616.2,194,616.2,194,616z"/>
	<path class="st3" d="M194.8,616c0-0.1,0.1-0.2,0.2-0.2c0.1,0,0.2,0.1,0.2,0.2c0,0.1-0.1,0.2-0.2,0.2
		C194.8,616.2,194.8,616.2,194.8,616z"/>
	<path class="st3" d="M195.5,616c0-0.1,0.1-0.2,0.2-0.2c0.1,0,0.2,0.1,0.2,0.2c0,0.1-0.1,0.2-0.2,0.2
		C195.6,616.2,195.5,616.2,195.5,616z"/>
	<path class="st3" d="M197,616c0-0.1,0.1-0.2,0.2-0.2s0.2,0.1,0.2,0.2c0,0.1-0.1,0.2-0.2,0.2C197.1,616.2,197,616.2,197,616z"/>
	<path class="st3" d="M197.7,616c0-0.1,0.1-0.2,0.2-0.2s0.2,0.1,0.2,0.2c0,0.1-0.1,0.2-0.2,0.2C197.8,616.2,197.7,616.2,197.7,616z"
		/>
	<path class="st3" d="M199.3,615.1v0.2h-0.9v-0.2H199.3z"/>
	<path class="st3" d="M200.3,615.1v0.2h-0.9v-0.2H200.3z"/>
	<path class="st3" d="M200.6,616c0-0.1,0.1-0.2,0.2-0.2s0.2,0.1,0.2,0.2c0,0.1-0.1,0.2-0.2,0.2C200.7,616.2,200.6,616.2,200.6,616z"
		/>
	<path class="st3" d="M202.2,615.1v0.2h-0.9v-0.2H202.2z"/>
	<path class="st3" d="M203.2,616c0-0.1,0.1-0.2,0.2-0.2c0.1,0,0.2,0.1,0.2,0.2c0,0.1-0.1,0.2-0.2,0.2
		C203.3,616.2,203.2,616.2,203.2,616z"/>
	<path class="st3" d="M204,616c0-0.1,0.1-0.2,0.2-0.2c0.1,0,0.2,0.1,0.2,0.2c0,0.1-0.1,0.2-0.2,0.2C204,616.2,204,616.2,204,616z"/>
	<path class="st3" d="M204.7,616c0-0.1,0.1-0.2,0.2-0.2s0.2,0.1,0.2,0.2c0,0.1-0.1,0.2-0.2,0.2C204.8,616.2,204.7,616.2,204.7,616z"
		/>
	<path class="st3" d="M205.4,616c0-0.1,0.1-0.2,0.2-0.2s0.2,0.1,0.2,0.2c0,0.1-0.1,0.2-0.2,0.2C205.5,616.2,205.4,616.2,205.4,616z"
		/>
	<path class="st3" d="M207.7,615.1v0.2h-0.9v-0.2H207.7z"/>
	<path class="st3" d="M208,616c0-0.1,0.1-0.2,0.2-0.2c0.1,0,0.2,0.1,0.2,0.2c0,0.1-0.1,0.2-0.2,0.2C208.1,616.2,208,616.2,208,616z"
		/>
	<path class="st3" d="M208.7,616c0-0.1,0.1-0.2,0.2-0.2c0.1,0,0.2,0.1,0.2,0.2c0,0.1-0.1,0.2-0.2,0.2
		C208.8,616.2,208.7,616.2,208.7,616z"/>
	<path class="st3" d="M211,615.1v0.2h-0.9v-0.2H211z"/>
	<path class="st3" d="M211.3,616c0-0.1,0.1-0.2,0.2-0.2c0.1,0,0.2,0.1,0.2,0.2c0,0.1-0.1,0.2-0.2,0.2
		C211.4,616.2,211.3,616.2,211.3,616z"/>
	<path class="st3" d="M212.8,615.1v0.2H212v-0.2H212.8z"/>
	<path class="st3" d="M213.9,615.1v0.2h-0.9v-0.2H213.9z"/>
</g>
<g>
	<path class="st4" d="M314,341.5c0.2,0.8,0.4,1.6,0.6,2.4c1-1.5,2.2-3,3.4-4.6c10.4-14.2,21.6-29,22.1-29.8c0.6-0.9,2.8-0.6,1.7,0.9
		c-1.1,1.4-13.3,17.9-21.8,29.4l-4.6,6.4c3.8,12.1,9.5,25.4,12.5,31c3.3,6.2,8.6,12.6,10,14.1c1.5,1.4,1.5,2.9,0.5,2.2
		c-0.3-0.2-1.4-0.8-2.2-1.8c-1.9-1.9-4.5-5.3-7.2-9.4c-0.7-1-1.4-2.2-2.3-3.6c-3.7-6.3-8.4-16.7-12.7-30.5c-3.4,5-4.6,7.4-6.6,10.6
		c-2.9,4.6-4.6,9-4.2,10.8c0.4,1.6-1.8,0.3-1.8-2.8c0-2.5,3.7-9.4,11.8-20.9l-1.1-4.1c-5.8-20.5-7.5-32-7.4-33.8
		c0.2-1.8,0.8-2.7,1.1-0.8C306.4,310.9,310.4,328.3,314,341.5z"/>
</g>
</svg>
