<?xml version="1.0" encoding="utf-8"?>
<!-- Generator: Adobe Illustrator 24.2.0, SVG Export Plug-In . SVG Version: 6.00 Build 0)  -->
<svg version="1.1" id="Layer_1" xmlns="http://www.w3.org/2000/svg" xmlns:xlink="http://www.w3.org/1999/xlink" x="0px" y="0px"
	 viewBox="0 0 600 700" style="enable-background:new 0 0 600 700;" xml:space="preserve">
<style type="text/css">
	.st0{opacity:0.2;fill:#FFFFFF;enable-background:new    ;}
	.st1{fill:#CE5C6D;}
	.st2{opacity:0.2;enable-background:new    ;}
	.st3{fill:#FFFFFF;}
</style>
<g>
	<polygon id="piece-iii_1_" class="st0" points="986.7,1671.8 986.9,1671.4 986.8,1671.2 987,1671.2 1042.6,1552.8 931,1502.7 
		857.9,1655.7 869.3,1686.9 937.7,1744.5 997.7,1701 987.1,1672 	"/>
	<polygon id="piece-v" class="st0" points="1266.9,1075.3 1093.7,808.3 1031.3,767.5 629.7,506 404.4,864.8 380,1098.1 
		649.7,1353.6 1051.5,1533.8 	"/>
	<path id="piece-i" class="st0" d="M882,1725.2l-152.1,90.1c0,0-0.6,32.4,15.1,32.4c15.7,0,50.7,0,50.7,0l124.6-90.3L882,1725.2z"/>
	<polygon id="piece-iv" class="st0" points="1517.9,1462.3 1280.3,1096 1009.5,1672.4 1020.4,1702.4 1318.9,1954.5 1528.6,1880.3 
		1585,1672 	"/>
	<path id="piece-ii" class="st0" d="M738.6,1914.7l1.6,4.5c0,0,4.1,40.7,18.8,41.2c14.8,0.5,535,0.5,535,0.5l-286-241.6
		L738.6,1914.7z"/>
	<polyline class="st1" points="373.2,148.7 245.2,229.7 151.5,551.4 155.1,667.2 392.1,333.4 408.6,32.5 	"/>
	<polygon class="st0" points="315.5,-166.2 -170.2,-48.4 -207.8,31.5 185.9,109.6 	"/>
	<path class="st0" d="M-223.4-35.5c-17.4,4.5,0,51.1,0,51.1l27.1-57.7C-196.3-42.1-205.9-39.9-223.4-35.5z"/>
	<g class="st2">
		<g>
			<polygon class="st3" points="288.4,1930.5 440.3,1184.1 436.3,1180.2 358.7,1106.8 359.7,1105.8 358.2,1105.6 384.1,857.9 
				384,857.8 618,485.3 426.1,32.5 412.7,340.5 412.5,340.5 412.6,340.5 156.3,701.8 156.6,711.7 249.4,1081.2 249.4,1845.5 			"/>
			<polygon class="st3" points="352.5,1847.6 513.2,1253.1 458.4,1201.2 326.8,1847.6 			"/>
		</g>
		<path class="st3" d="M279.2,1960.9l-46.1-100.3l-96.6,76.5c0,0-1.6,23.8,11,23.8C159.9,1960.9,279.2,1960.9,279.2,1960.9z"/>
	</g>
	<path id="piece-x" class="st0" d="M355.3,135c0,0,61.9-202,71.2-234.9c9.3-32.9-85.8-69.6-85.8-69.6l-137.2,291l-10.8,32.2
		l47.7,54.2L355.3,135z"/>
</g>
<g transform="translate(0.000000,2000.000000) scale(0.100000,-0.100000)">
	<path class="st3" d="M2531.1,17199v-117h117h117v117v117h-117h-117V17199z M2731.8,17199v-83.6h-83.6h-83.6v83.6v83.6h83.6h83.6
		V17199z"/>
	<path class="st3" d="M2598,17199v-50.2h50.2h50.2v50.2v50.2h-50.2H2598V17199z"/>
	<path class="st3" d="M2832.1,17299.3v-16.7h-16.7h-16.7v-33.4v-33.4h33.4h33.4v-66.9v-66.9h-16.7h-16.7v16.7v16.7h-16.7h-16.7
		v-16.7v-16.7h16.7h16.7v-16.7v-16.7h16.7h16.7v16.7v16.7h16.7h16.7v83.6v83.6h50.2h50.2v-33.4v-33.4h33.4h33.4v-16.7v-16.7h16.7
		h16.7v16.7v16.7h16.7h16.7v-16.7v-16.7h16.7h16.7v33.4v33.4h16.7h16.7v-33.4v-33.4h16.7h16.7v33.4v33.4h-16.7h-16.7v16.7v16.7h16.7
		h16.7v33.4v33.4h-16.7h-16.7v-33.4v-33.4h-16.7h-16.7v33.4v33.4h-16.7h-16.7v-16.7v-16.7h-16.7h-16.7v-16.7v-16.7h-16.7h-16.7v16.7
		v16.7h-16.7h-16.7v16.7v16.7H3016h-16.7v-16.7v-16.7h-50.2H2899v16.7v16.7h-33.4h-33.4V17299.3z M2899,17265.8v-16.7h-33.4h-33.4
		v16.7v16.7h33.4h33.4V17265.8z M3032.7,17265.8v-16.7h16.7h16.7v-16.7v-16.7h16.7h16.7v16.7v16.7h16.7h16.7v-16.7v-16.7h-16.7
		h-16.7v-16.7v-16.7h-16.7h-16.7v16.7v16.7h-16.7h-16.7v16.7v16.7H3016h-16.7v16.7v16.7h16.7h16.7V17265.8z"/>
	<path class="st3" d="M3266.8,17199v-117h117h117v117v117h-117h-117V17199z M3467.5,17199v-83.6h-83.6h-83.6v83.6v83.6h83.6h83.6
		V17199z"/>
	<path class="st3" d="M3333.7,17199v-50.2h50.2h50.2v50.2v50.2h-50.2h-50.2V17199z"/>
	<path class="st3" d="M2932.4,17199v-16.7h16.7h16.7v16.7v16.7h-16.7h-16.7V17199z"/>
	<path class="st3" d="M2932.4,17065.2v-83.6h-16.7H2899v16.7v16.7h-33.4h-33.4v-16.7v-16.7h-16.7h-16.7v-50.2v-50.2h33.4h33.4v-16.7
		v-16.7h-16.7h-16.7v-33.4v-33.4h-66.9h-66.9v16.7v16.7h-16.7h-16.7v-16.7v-16.7h16.7h16.7v-50.2v-50.2h33.4h33.4v-16.7v-16.7h-16.7
		h-16.7v-16.7v-16.7h50.2h50.2v-16.7v-16.7h-16.7h-16.7v-33.4v-33.4h33.4h33.4v-33.4v-33.4h66.9h66.9v-16.7v-16.7h16.7h16.7v-16.7
		v-16.7h-33.4h-33.4v16.7v16.7h-16.7h-16.7v-16.7v-16.7h16.7h16.7v-16.7v-16.7h50.2h50.2v33.4v33.4h-16.7h-16.7v16.7v16.7h16.7h16.7
		v16.7v16.7h16.7h16.7v16.7v16.7h33.4h33.4v-16.7v-16.7h16.7h16.7v-16.7v-16.7h33.4h33.4v-16.7v-16.7h16.7h16.7v-16.7v-16.7h-33.4
		h-33.4v16.7v16.7h-33.4h-33.4v16.7v16.7h-33.4h-33.4v-16.7v-16.7h33.4h33.4v-16.7v-16.7h-33.4h-33.4v-16.7v-16.7h50.2h50.2v16.7
		v16.7h16.7h16.7v-16.7v-16.7h33.4h33.4v16.7v16.7h16.7h16.7v16.7v16.7H3317h-16.7v16.7v16.7h16.7h16.7v16.7v16.7h16.7h16.7v-50.2
		v-50.2h16.7h16.7v-16.7v-16.7h16.7h16.7v33.4v33.4h-16.7h-16.7v33.4v33.4h16.7h16.7v-16.7v-16.7h16.7h16.7v16.7v16.7h16.7h16.7
		v50.2v50.2h-33.4H3434v16.7v16.7h33.4h33.4v16.7v16.7h-33.4H3434v-16.7v-16.7h-16.7h-16.7v33.4v33.4h50.2h50.2v16.7v16.7h-33.4
		H3434v16.7v16.7h-50.2h-50.2v50.2v50.2H3317h-16.7v16.7v16.7h66.9h66.9v16.7v16.7h16.7h16.7v-16.7v-16.7h16.7h16.7v16.7v16.7h-16.7
		h-16.7v33.4v33.4H3434h-33.4v16.7v16.7h33.4h33.4v16.7v16.7H3434h-33.4v-16.7v-16.7h-16.7h-16.7v-16.7v-16.7h-33.4h-33.4v16.7v16.7
		h-16.7h-16.7v16.7v16.7h-16.7h-16.7v33.4v33.4h-16.7h-16.7v-33.4v-33.4h-16.7h-16.7v33.4v33.4h-16.7h-16.7v-33.4v-33.4h-16.7h-16.7
		v33.4v33.4h-16.7h-16.7v-16.7v-16.7h-16.7h-16.7v16.7v16.7H3016h-16.7v-33.4v-33.4h16.7h16.7v-16.7v-16.7h16.7h16.7v16.7v16.7h16.7
		h16.7v-16.7v-16.7h16.7h16.7v-33.4v-33.4h-16.7h-16.7v-50.2v-50.2h-16.7h-16.7v-16.7v-16.7h-16.7h-16.7v-16.7v-16.7H3016h-16.7
		v-50.2v-50.2h-50.2H2899v16.7v16.7h-16.7h-16.7v-33.4v-33.4h-33.4h-33.4v16.7v16.7h-16.7h-16.7v16.7v16.7h33.4h33.4v16.7v16.7h16.7
		h16.7v50.2v50.2h16.7h16.7v-33.4v-33.4h16.7h16.7v50.2v50.2h-16.7H2899v16.7v16.7h16.7h16.7v33.4v33.4h16.7h16.7v-16.7v-16.7h33.4
		h33.4v-16.7v-16.7h16.7h16.7v33.4v33.4h-33.4h-33.4v16.7v16.7h-16.7h-16.7v66.9v66.9h-16.7h-16.7V17065.2z M3166.5,17031.8v-16.7
		h-16.7h-16.7v16.7v16.7h16.7h16.7V17031.8z M3233.4,17015v-33.4h33.4h33.4v-16.7v-16.7h16.7h16.7v-16.7v-16.7H3317h-16.7v-16.7
		v-16.7h-33.4h-33.4v16.7v16.7h-16.7h-16.7v-16.7v-16.7h-16.7h-16.7v-16.7v-16.7h16.7h16.7v-16.7v-16.7h16.7h16.7v-16.7v-16.7h-16.7
		h-16.7v16.7v16.7h-16.7h-16.7v-16.7v-16.7h-50.2h-50.2v-33.4v-33.4h-16.7h-16.7v33.4v33.4h16.7h16.7v16.7v16.7h16.7h16.7v16.7v16.7
		h16.7h16.7v33.4v33.4h33.4h33.4v16.7v16.7h-16.7h-16.7v16.7v16.7h16.7h16.7v33.4v33.4h16.7h16.7V17015z M2899,16964.9v-16.7h-33.4
		h-33.4v16.7v16.7h33.4h33.4V16964.9z M3400.6,16948.2v-33.4h-16.7h-16.7v33.4v33.4h16.7h16.7V16948.2z M3300.3,16831.1v-16.7h-16.7
		h-16.7v16.7v16.7h16.7h16.7V16831.1z M2765.2,16730.8v-16.7h-16.7h-16.7v16.7v16.7h16.7h16.7V16730.8z M3233.4,16697.4v-50.2h-16.7
		h-16.7v-16.7v-16.7h-16.7h-16.7v-33.4v-33.4h16.7h16.7v-16.7v-16.7h-16.7h-16.7v16.7v16.7h-16.7h-16.7v33.4v33.4h-66.9h-66.9v-16.7
		v-16.7h33.4h33.4v-50.2v-50.2h-66.9h-66.9v33.4v33.4h33.4h33.4v16.7v16.7h-16.7h-16.7v33.4v33.4h83.6h83.6v-16.7v-16.7h16.7h16.7
		v16.7v16.7h16.7h16.7v16.7v16.7h-33.4h-33.4v16.7v16.7h-16.7h-16.7v16.7v16.7h66.9h66.9V16697.4z M3300.3,16730.8v-16.7h50.2h50.2
		v-16.7v-16.7h-50.2h-50.2v-16.7v-16.7h-16.7h-16.7v50.2v50.2h16.7h16.7V16730.8z M2932.4,16613.8v-33.4h-16.7H2899v-33.4v-33.4
		h-16.7h-16.7v33.4v33.4h16.7h16.7v33.4v33.4h16.7h16.7V16613.8z M3333.7,16563.6v-50.2h-50.2h-50.2v50.2v50.2h50.2h50.2V16563.6z
		 M3400.6,16597v-16.7h16.7h16.7v-16.7v-16.7h16.7h16.7v-33.4v-33.4h-16.7H3434v16.7v16.7h-16.7h-16.7v16.7v16.7h-16.7h-16.7v33.4
		v33.4h16.7h16.7V16597z"/>
	<path class="st3" d="M3199.9,16964.9v-16.7h16.7h16.7v-16.7v-16.7h16.7h16.7v16.7v16.7h-16.7h-16.7v16.7v16.7h-16.7h-16.7V16964.9z
		"/>
	<path class="st3" d="M3133.1,16831.1v-16.7h16.7h16.7v16.7v16.7h-16.7h-16.7V16831.1z"/>
	<path class="st3" d="M3266.8,16563.6v-16.7h16.7h16.7v16.7v16.7h-16.7h-16.7V16563.6z"/>
	<path class="st3" d="M2631.5,16998.3v-50.2h-16.7H2598v-33.4v-33.4h-16.7h-16.7v-33.4v-33.4h-16.7h-16.7v-16.7v-16.7h16.7h16.7
		v-16.7v-16.7h-16.7h-16.7v-66.9v-66.9h66.9h66.9v66.9v66.9h-16.7h-16.7v50.2v50.2h16.7h16.7v66.9v66.9h16.7h16.7v-16.7v-16.7h33.4
		h33.4v16.7v16.7h-16.7h-16.7v16.7v16.7h33.4h33.4v16.7v16.7h-50.2h-50.2v-16.7v-16.7h-16.7h-16.7v16.7v16.7h-16.7h-16.7V16998.3z
		 M2631.5,16864.6v-16.7h-16.7H2598v16.7v16.7h16.7h16.7V16864.6z M2598,16730.8v-16.7h16.7h16.7v-33.4v-33.4H2598h-33.4v50.2v50.2
		h16.7h16.7V16730.8z"/>
	<path class="st3" d="M2531.1,16998.3v-16.7h33.4h33.4v16.7v16.7h-33.4h-33.4V16998.3z"/>
	<path class="st3" d="M2698.3,16881.3v-33.4h16.7h16.7v-16.7v-16.7h33.4h33.4v16.7v16.7h-33.4h-33.4v16.7v16.7h16.7h16.7v16.7v16.7
		h-33.4h-33.4V16881.3z"/>
	<path class="st3" d="M2965.9,16831.1v-16.7h16.7h16.7v16.7v16.7h-16.7h-16.7V16831.1z"/>
	<path class="st3" d="M3367.1,16831.1v-16.7h16.7h16.7v-16.7v-16.7h16.7h16.7v16.7v16.7h16.7h16.7v-33.4v-33.4h16.7h16.7v50.2v50.2
		h-33.4H3434v-16.7v-16.7h-16.7h-16.7v16.7v16.7h-16.7h-16.7V16831.1z"/>
	<path class="st3" d="M2531.1,16463.3v-117h117h117v117v117h-117h-117V16463.3z M2731.8,16463.3v-83.6h-83.6h-83.6v83.6v83.6h83.6
		h83.6V16463.3z"/>
	<path class="st3" d="M2598,16463.3v-50.2h50.2h50.2v50.2v50.2h-50.2H2598V16463.3z"/>
	<path class="st3" d="M2798.7,16463.3v-16.7h16.7h16.7v16.7v16.7h-16.7h-16.7V16463.3z"/>
	<path class="st3" d="M2832.1,16379.7v-33.4h33.4h33.4v16.7v16.7h-16.7h-16.7v16.7v16.7h-16.7h-16.7V16379.7z"/>
	<path class="st3" d="M3467.5,16362.9v-16.7h16.7h16.7v16.7v16.7h-16.7h-16.7V16362.9z"/>
</g>
</svg>
