<?xml version="1.0" standalone="no"?>
<!DOCTYPE svg PUBLIC "-//W3C//DTD SVG 20010904//EN"
 "http://www.w3.org/TR/2001/REC-SVG-20010904/DTD/svg10.dtd">
<svg version="1.0" xmlns="http://www.w3.org/2000/svg"
 width="60pt" height="60pt" viewBox="0 0 4569.000000 4569.000000"
 preserveAspectRatio="xMidYMid meet">

<g transform="translate(0.000000,4569.000000) scale(0.100000,-0.100000)"
fill="#000000" stroke="none">
<path d="M22255 45654 c-377 -14 -664 -27 -865 -39 -5324 -335 -10323 -2510
-14215 -6185 -250 -236 -790 -779 -1005 -1010 -1825 -1959 -3272 -4178 -4315
-6615 -1013 -2368 -1617 -4917 -1780 -7505 -33 -535 -40 -772 -40 -1455 0
-683 7 -920 40 -1455 334 -5320 2511 -10323 6185 -14215 236 -250 779 -790
1010 -1005 1959 -1825 4178 -3272 6615 -4315 2368 -1013 4917 -1617 7505
-1780 535 -33 772 -40 1455 -40 683 0 920 7 1455 40 5116 321 9954 2352 13780
5784 564 507 1211 1151 1715 1711 1918 2128 3423 4601 4420 7263 788 2106
1259 4310 1400 6557 33 535 40 772 40 1455 0 683 -7 920 -40 1455 -321 5116
-2352 9954 -5784 13780 -378 421 -904 961 -1316 1350 -3128 2953 -6986 4951
-11180 5789 -1141 228 -2232 359 -3505 422 -207 10 -1389 20 -1575 13z m-6460
-13500 c1843 -1912 3420 -3544 3505 -3627 811 -793 1858 -1292 2980 -1421 729
-84 1479 -3 2174 234 756 258 1421 675 1996 1251 91 91 1657 1712 3480 3602
l3315 3436 2133 1 c1873 0 2133 -2 2130 -15 -3 -15 -8667 -9004 -8968 -9305
-1003 -1000 -2215 -1712 -3555 -2085 -1674 -466 -3473 -371 -5086 270 -910
362 -1766 898 -2467 1546 -68 63 -139 128 -158 144 -65 56 -9089 9415 -9092
9430 -3 13 257 15 2130 15 l2133 -1 3350 -3475z m7450 -10344 c1624 -87 3126
-632 4423 -1605 280 -210 540 -433 819 -702 199 -191 9083 -9415 9083 -9430 0
-11 -367 -13 -2132 -12 l-2133 1 -3370 3499 c-1853 1925 -3442 3571 -3530
3657 -1199 1173 -2873 1684 -4495 1371 -953 -184 -1842 -642 -2549 -1315 -52
-49 -1642 -1692 -3534 -3651 l-3440 -3563 -2128 0 c-1880 0 -2129 2 -2129 15
0 22 9058 9414 9241 9581 674 617 1361 1077 2144 1436 1160 533 2472 785 3730
718z"/>
</g>
</svg>
