<svg xmlns="http://www.w3.org/2000/svg" viewBox="0 0 81.48 77.64"><defs><style>.cls-1{fill:#fff;}</style></defs><g id="Layer_2" data-name="Layer 2"><g id="Layer_1-2" data-name="Layer 1"><path class="cls-1" d="M39.36,0A40.73,40.73,0,0,0,3.54,57.33c.72-8,3.29-16.18,7.39-20.07,11.31.18,13.65-4.88,13.65-4.88C15.9,36.5,9.63,33.9,9.63,33.9v0c.09-.75,1.81-12.18,16.78-13.41a59.85,59.85,0,0,1,6.74.15,14,14,0,0,0-3.58-1.5,14.31,14.31,0,0,1,4.77-2.5A15.43,15.43,0,0,1,38.78,16h2.36a20.3,20.3,0,0,1,12.13,4c4.75,3.5,12.38,8.07,20.16,8.2a1.49,1.49,0,0,1,1.46,1.48C73.75,41.22,58.2,41.76,50.42,41.29A18.9,18.9,0,0,0,35.5,47c-4.44,4.73-9.58,17,2,26.09A21.07,21.07,0,0,0,52,77.6a27.19,27.19,0,0,0,18-8.51A40.74,40.74,0,0,0,39.36,0Z"/></g></g></svg>